<?xml version="1.0" standalone="no"?>
<!DOCTYPE svg PUBLIC "-//W3C//DTD SVG 20010904//EN"
 "http://www.w3.org/TR/2001/REC-SVG-20010904/DTD/svg10.dtd">
<svg version="1.0" xmlns="http://www.w3.org/2000/svg"
 width="153.000000pt" height="60.000000pt" viewBox="0 0 250.000000 60.000000"
 preserveAspectRatio="xMidYMid meet">

<g transform="translate(0.000000,60.000000) scale(0.0600000,-0.0600000)"
fill="#000000" stroke="none">
<path d="M382 493 c-16 -6 -42 -68 -42 -102 0 -35 -10 -47 -42 -55 -33 -8 -32
-9 -12 40 37 88 24 123 -41 106 -27 -8 -32 -15 -50 -83 -11 -41 -24 -81 -30
-89 -5 -8 -10 -31 -11 -50 0 -19 -5 -57 -9 -83 -8 -49 0 -66 31 -67 10 0 48
75 67 132 6 17 69 41 75 28 1 -4 -4 -34 -12 -68 -13 -55 -12 -64 1 -77 25 -26
56 28 106 184 38 118 44 147 35 167 -11 23 -35 29 -66 17z"/>
<path d="M792 453 c-5 -10 -15 -34 -21 -54 -9 -29 -18 -38 -42 -43 -28 -5 -52
-36 -33 -43 32 -11 34 -19 19 -62 -20 -58 -19 -87 5 -111 39 -39 141 -12 145
38 2 24 -10 25 -60 6 -14 -6 -16 -3 -10 17 19 66 40 93 80 104 29 8 40 16 40
30 0 15 -8 21 -32 23 l-33 3 15 30 c9 17 13 39 9 54 -5 20 -12 25 -40 25 -22
0 -36 -6 -42 -17z"/>
<path d="M537 353 c-33 -5 -81 -66 -97 -122 -8 -30 -7 -40 8 -61 43 -58 100
-56 161 4 45 45 55 116 21 159 -21 27 -32 29 -93 20z m39 -106 c-8 -20 -24
-40 -35 -47 -29 -15 -26 -3 12 52 35 52 46 50 23 -5z"/>
<path d="M995 319 c-106 -98 -90 -209 28 -185 37 8 64 9 92 4 11 -1 20 2 20 9
0 6 3 15 8 19 13 13 8 24 -9 17 -19 -7 -15 10 16 80 21 47 14 72 -26 87 -51
20 -82 12 -129 -31z m75 -68 c0 -14 -47 -67 -54 -61 -5 5 41 70 50 70 2 0 4
-4 4 -9z"/>
<path d="M1296 350 c-39 -12 -66 -38 -87 -85 -26 -55 -24 -73 12 -106 25 -23
40 -29 76 -29 55 0 83 14 83 41 0 19 -4 21 -45 15 -29 -5 -45 -4 -45 3 0 6 10
11 21 11 27 0 86 36 99 61 12 21 4 63 -13 77 -19 15 -70 21 -101 12z m39 -79
c-3 -6 -14 -11 -23 -11 -15 1 -15 2 2 15 21 16 32 13 21 -4z"/>
</g>
</svg>
