<?xml version="1.0" standalone="no"?>
<!DOCTYPE svg PUBLIC "-//W3C//DTD SVG 20010904//EN"
 "http://www.w3.org/TR/2001/REC-SVG-20010904/DTD/svg10.dtd">
<svg version="1.0" xmlns="http://www.w3.org/2000/svg"
 width="47.000000pt" height="15.000000pt" viewBox="0 0 47.000000 15.000000"
 preserveAspectRatio="xMidYMid meet">

<g transform="translate(0.000000,1600.000000) scale(0.100000,-0.100000)"
fill="#000000" stroke="none">
<path d="M11138 15537 c-21 -12 -45 -29 -55 -37 -10 -9 -28 -23 -41 -32 -23
-16 -44 -47 -78 -118 -27 -56 -37 -179 -19 -231 14 -40 57 -106 78 -120 5 -4
7 -11 3 -17 -3 -6 -2 -13 4 -17 5 -3 10 0 11 7 1 7 5 2 9 -12 5 -17 8 -19 9
-7 2 29 30 18 50 -21 15 -29 -2 -56 -30 -47 -14 5 -19 1 -20 -12 -1 -10 -3
-43 -5 -73 -6 -73 1 -97 38 -132 26 -24 30 -33 21 -47 -10 -15 -8 -17 10 -14
12 2 28 -1 36 -6 12 -8 6 -18 -28 -53 -24 -24 -48 -56 -54 -71 -7 -20 -13 -25
-20 -18 -8 8 -18 -4 -34 -40 -32 -70 -34 -235 -3 -324 33 -96 88 -168 153
-201 43 -22 43 -21 21 -45 -23 -26 -26 -122 -7 -229 19 -102 22 -110 50 -136
l25 -23 -44 -11 c-89 -24 -226 -74 -307 -112 -76 -37 -85 -39 -99 -24 -11 11
-17 36 -18 75 -1 48 -7 69 -37 117 -46 76 -121 154 -150 156 -47 3 -52 4 -51
13 1 6 5 26 9 45 4 22 3 30 -3 22 -6 -8 -24 -12 -48 -10 -37 3 -39 5 -46 48
-32 184 -101 322 -211 415 -25 22 -44 43 -41 47 11 17 62 6 127 -27 37 -19 67
-31 67 -27 -1 14 -81 73 -132 97 -37 17 -71 25 -111 25 l-58 0 7 50 c6 44 3
59 -24 113 -34 68 -113 162 -127 150 -4 -5 -5 -2 -1 5 4 7 12 10 17 7 21 -14
1 147 -21 165 -3 3 -14 27 -25 55 -10 27 -20 44 -23 37 -2 -6 -12 -12 -23 -12
-14 0 -20 10 -25 40 -4 22 -10 40 -15 40 -5 0 -9 7 -9 15 0 18 -2 19 -45 1
-26 -11 -35 -12 -35 -3 0 7 -19 23 -41 36 -30 16 -38 26 -29 31 11 7 10 12 -3
25 -32 31 -76 11 -132 -61 -27 -35 -53 -64 -57 -64 -5 0 -8 -9 -8 -20 0 -10
-7 -45 -15 -77 -9 -34 -15 -95 -14 -148 l1 -90 57 -53 c31 -30 68 -61 84 -70
18 -11 27 -25 27 -42 1 -37 33 -103 85 -170 56 -72 87 -98 131 -106 26 -5 34
-11 34 -28 0 -11 6 -29 13 -38 12 -15 14 -15 25 3 7 10 19 19 28 19 12 0 14
-3 6 -13 -6 -6 -12 -28 -14 -47 -2 -23 -8 -34 -17 -32 -10 2 -11 -4 -5 -25 4
-15 8 -77 9 -138 1 -123 9 -144 73 -210 95 -97 149 -126 249 -133 l73 -5 -6
-52 c-7 -60 4 -88 73 -177 59 -77 101 -108 146 -108 27 0 39 -6 48 -21 10 -19
-2 -34 -125 -158 -74 -75 -149 -152 -165 -171 -17 -19 -31 -29 -31 -22 0 22
-79 99 -150 148 -77 52 -154 71 -166 40 -3 -9 -14 -16 -24 -16 -10 0 -25 -7
-34 -15 -9 -9 -17 -11 -21 -5 -3 5 -1 10 4 10 6 0 11 4 11 10 0 5 -13 7 -30 4
-27 -6 -30 -4 -30 18 0 39 -47 166 -80 217 -17 25 -36 55 -43 65 -14 23 -106
116 -114 116 -3 0 -18 11 -34 25 -29 24 -29 24 -9 35 12 6 34 12 50 12 16 1
27 5 24 9 -15 26 -176 39 -228 19 -25 -9 -26 -8 -26 26 0 19 -7 48 -15 63 -15
30 -122 131 -138 131 -5 0 -14 -13 -20 -30 -6 -16 -15 -30 -20 -30 -4 0 -5 5
-2 10 3 6 1 10 -4 10 -11 0 -15 -13 -12 -36 1 -9 -8 -10 -31 -4 -62 16 -78 22
-78 31 0 5 -11 9 -23 9 -35 0 -57 30 -57 78 0 23 -5 42 -10 42 -6 0 -13 7 -17
15 -7 19 -61 75 -73 75 -13 0 -20 42 -14 81 5 29 2 37 -12 43 -11 4 -20 2 -22
-3 -2 -6 -7 -9 -11 -6 -5 2 -26 -20 -47 -50 -23 -31 -47 -54 -58 -55 -14 0
-16 -3 -8 -13 8 -9 7 -24 -3 -52 -8 -22 -14 -48 -15 -57 0 -10 -7 -18 -15 -18
-10 0 -15 -10 -15 -32 0 -25 -3 -29 -12 -20 -15 15 -38 -3 -38 -30 0 -14 5
-18 16 -14 11 4 15 2 11 -7 -11 -29 75 -100 191 -157 39 -19 76 -45 83 -58 13
-23 139 -121 191 -148 16 -8 43 -16 59 -16 27 -1 29 -4 29 -40 0 -22 4 -37 8
-34 9 6 42 -29 42 -44 0 -5 14 -38 30 -72 27 -56 29 -64 15 -74 -11 -8 -12
-14 -6 -19 6 -3 11 -1 11 5 0 6 5 8 10 5 6 -3 7 -17 4 -31 -5 -20 -3 -23 12
-17 12 4 15 3 10 -6 -13 -20 77 -96 162 -138 75 -37 79 -38 190 -38 l112 0 0
-35 c0 -41 23 -69 117 -141 67 -53 114 -79 140 -79 10 0 30 -11 44 -24 20 -17
26 -31 24 -59 -3 -56 6 -89 27 -95 12 -3 22 -20 29 -48 6 -24 16 -44 23 -44 6
0 5 -4 -3 -9 -12 -8 -13 -15 -4 -33 6 -14 9 -45 6 -70 -6 -47 20 -123 38 -112
5 3 9 -3 9 -13 1 -21 44 -73 61 -73 6 0 9 -7 5 -15 -3 -9 7 -29 23 -48 15 -17
36 -47 45 -65 11 -22 22 -32 32 -28 9 3 14 -1 14 -13 0 -11 14 -33 30 -51 17
-18 30 -38 30 -45 0 -7 7 -18 16 -26 9 -7 25 -32 36 -56 36 -77 159 -174 383
-303 192 -111 357 -181 610 -260 l119 -38 12 -46 c14 -55 46 -106 97 -158 21
-20 37 -41 37 -46 0 -20 52 -72 71 -72 10 0 19 -4 19 -10 0 -5 -4 -10 -9 -10
-8 0 -15 -133 -15 -310 0 -36 -2 -55 -4 -42 -2 12 -8 22 -14 22 -6 0 -8 -12
-4 -31 3 -17 6 -41 6 -53 0 -15 3 -17 9 -7 5 8 8 -22 7 -75 l-1 -87 58 -116
c75 -150 128 -223 254 -349 57 -56 103 -105 103 -109 0 -3 -15 -24 -33 -47
-45 -57 -92 -149 -112 -224 -14 -49 -17 -85 -12 -170 8 -154 42 -250 132 -377
119 -168 271 -248 470 -247 148 1 289 40 398 110 52 33 149 119 163 145 9 15
15 14 70 -8 117 -47 188 -59 354 -59 131 -1 169 3 245 23 97 25 165 56 211 94
28 23 37 24 229 30 l201 7 12 -68 c18 -91 66 -233 109 -317 53 -105 175 -278
186 -264 17 20 130 248 148 299 l24 65 6 -43 c6 -50 25 -75 39 -52 5 8 6 18 3
23 -3 5 -9 3 -14 -4 -6 -10 -9 -5 -10 16 0 17 -5 68 -11 115 -18 160 -17 177
26 260 58 113 223 357 249 368 4 2 7 10 7 17 0 7 18 29 40 49 22 20 40 40 40
45 0 21 230 240 320 306 53 39 105 75 115 82 101 61 174 101 252 138 103 49
318 129 376 140 20 4 37 11 37 15 0 13 -85 67 -179 114 -349 174 -783 176
-1151 3 -127 -59 -281 -176 -364 -275 -78 -93 -173 -259 -191 -334 -9 -34 -16
-34 -119 -4 -44 13 -113 31 -153 40 -117 28 -402 29 -513 3 -8 -2 -33 -7 -55
-11 -127 -24 -345 -108 -428 -165 -25 -17 -50 -31 -54 -31 -5 0 -18 19 -28 43
-70 159 -270 319 -425 339 -24 3 -25 6 -31 93 -8 117 -38 226 -99 350 -48 101
-144 236 -181 255 -18 10 -19 7 -19 -87 0 -65 7 -123 20 -172 24 -90 25 -119
4 -71 -9 19 -27 57 -40 83 -13 27 -24 55 -24 62 0 7 -7 18 -15 25 -9 7 -13 15
-11 17 3 3 -3 19 -13 36 -10 18 -21 44 -25 60 -6 27 -26 38 -26 15 0 -7 9 -42
20 -76 27 -88 26 -120 -3 -66 -12 23 -37 69 -54 102 -18 34 -33 67 -33 73 0 6
-6 25 -14 42 -7 18 -24 61 -36 97 -13 36 -27 69 -32 75 -4 5 -8 15 -8 21 0 7
-15 45 -34 86 -65 142 -66 144 -47 159 53 44 50 43 70 18 24 -30 38 -19 17 13
-12 19 -14 32 -6 58 26 92 4 183 -66 273 -41 52 -46 63 -47 115 -1 31 -3 49
-5 40 -2 -10 -7 -18 -12 -18 -14 0 -18 38 -13 119 4 53 2 80 -6 85 -7 5 -11
-5 -11 -32 0 -22 -9 -60 -21 -86 -20 -47 -39 -53 -39 -13 0 12 -9 37 -20 55
-11 17 -15 32 -10 32 18 0 10 22 -15 42 -29 23 -32 38 -8 38 13 0 9 8 -15 33
-35 37 -39 47 -17 47 13 0 14 28 10 212 -3 127 -9 216 -16 223 -14 14 -329 21
-329 6 0 -6 -17 -11 -40 -11 l-40 0 0 65 0 65 -40 0 -40 0 0 80 c0 79 0 80
-25 80 -22 0 -25 4 -25 40 0 29 -4 40 -15 40 -11 0 -15 -11 -15 -40 l0 -40
-40 0 -40 0 0 80 c0 64 3 80 15 80 11 0 15 11 15 40 l0 40 -40 0 -40 0 0 40
c0 36 -2 40 -25 40 -25 0 -25 1 -25 80 0 64 -3 80 -15 80 -11 0 -15 11 -15 40
0 36 -2 40 -25 40 -25 0 -25 1 -25 90 0 71 3 90 14 90 8 0 31 19 50 42 20 23
36 36 36 30 0 -19 24 -14 38 8 7 12 24 25 37 30 14 5 29 21 35 34 5 13 19 31
31 39 17 12 20 22 15 44 -4 15 -3 23 1 17 9 -12 72 -25 141 -27 23 -1 42 -5
42 -9 0 -5 5 -8 11 -8 5 0 7 5 4 10 -21 35 93 2 134 -38 12 -12 12 -15 0 -24
-10 -7 -4 -8 20 -4 33 6 34 6 17 -13 -16 -18 -16 -20 10 -40 15 -11 36 -21 48
-22 21 0 21 -1 1 -10 -15 -7 -12 -8 15 -4 27 4 32 3 22 -7 -7 -7 -12 -16 -12
-22 0 -6 5 -5 12 2 19 19 28 14 28 -13 0 -14 7 -28 15 -31 10 -4 14 -14 10
-28 -5 -15 -4 -17 3 -7 8 11 13 8 28 -15 9 -16 27 -45 39 -64 11 -19 34 -63
51 -97 16 -34 35 -62 42 -63 6 0 12 -11 12 -25 0 -13 8 -32 18 -42 10 -10 24
-30 31 -45 8 -15 18 -25 23 -22 4 3 8 -4 8 -15 0 -12 6 -21 13 -21 7 0 21 -16
30 -35 9 -20 24 -38 32 -41 8 -4 15 -13 15 -21 0 -8 5 -11 10 -8 6 3 13 -1 16
-9 11 -28 83 -96 97 -90 18 7 65 81 72 115 4 16 16 34 28 41 28 14 39 32 54
88 17 62 16 110 -1 110 -8 0 -17 7 -20 16 -10 25 -7 108 4 124 9 13 14 11 33
-12 13 -16 26 -28 30 -28 11 0 8 58 -3 65 -19 12 -10 33 16 39 87 22 158 136
170 273 9 103 11 247 3 227 -5 -12 -8 1 -8 39 -1 31 -5 57 -10 57 -5 0 -14 13
-19 30 -8 21 -15 28 -27 24 -11 -5 -14 -2 -8 12 4 12 3 15 -6 10 -9 -6 -10 0
-5 19 6 25 5 26 -15 15 -12 -6 -34 -9 -49 -7 -25 4 -24 4 6 6 17 0 32 6 32 11
0 15 54 34 58 21 4 -12 70 26 81 48 7 12 31 150 31 176 0 3 -6 2 -14 -1 -11
-4 -18 6 -26 36 -10 37 -9 44 7 56 25 19 34 17 40 -6 5 -17 7 -18 20 -4 10 10
13 25 9 47 -5 28 -2 35 22 49 115 68 184 256 146 400 -8 33 -13 62 -11 65 7 7
-45 97 -78 134 -31 35 -49 46 -123 73 -52 19 -118 7 -172 -33 -19 -15 -47 -33
-62 -40 -15 -8 -37 -23 -48 -33 -27 -25 -25 -12 4 26 13 17 26 41 30 53 4 12
16 25 27 28 10 4 19 10 19 15 0 4 16 11 36 15 44 8 84 25 84 37 0 11 -2 11
-66 -13 -59 -22 -134 -81 -134 -105 0 -8 -4 -14 -9 -14 -12 0 -49 -90 -72
-174 -34 -130 -17 -268 45 -349 l27 -35 -31 -76 c-40 -101 -59 -260 -34 -287
15 -17 13 -19 -35 -39 -57 -25 -137 -104 -170 -167 -97 -190 -90 -423 15 -536
14 -16 24 -29 23 -31 -2 -1 -16 -10 -31 -19 -16 -10 -28 -22 -28 -28 0 -6 -11
-35 -25 -66 -14 -30 -28 -75 -32 -99 -3 -24 -8 -44 -12 -44 -3 0 -42 58 -85
128 -171 274 -265 384 -389 452 -87 47 -88 49 -81 190 5 86 4 93 -10 76 -26
-32 -42 -12 -56 68 -7 42 -11 79 -8 82 6 6 47 -68 58 -106 l8 -25 1 25 c2 54
-28 135 -58 161 l-31 25 36 35 c20 19 49 61 66 93 25 50 31 75 35 156 6 101
-8 211 -33 259 l-14 26 0 -30 c0 -17 7 -57 15 -88 20 -76 20 -163 0 -170 -20
-8 -23 -1 -23 64 -1 111 -54 239 -132 316 -33 33 -41 46 -31 52 18 12 52 2 79
-22 12 -11 22 -16 22 -10 0 15 -51 57 -89 73 l-32 13 20 21 c22 24 38 117 27
160 -5 22 -11 25 -30 20 -22 -5 -24 -2 -31 46 -8 59 -3 70 27 51 19 -12 20
-11 15 9 -4 16 3 29 27 51 87 76 107 237 45 360 -20 40 -72 99 -87 99 -5 0
-15 7 -22 15 -7 8 -21 15 -32 15 -10 0 -17 4 -13 9 9 15 -10 21 -82 26 -57 3
-74 1 -105 -18z m199 -664 c-3 -10 -5 -4 -5 12 0 17 2 24 5 18 2 -7 2 -21 0
-30z m-152 -261 c-3 -3 -11 0 -18 7 -9 10 -8 11 6 5 10 -3 15 -9 12 -12z
m-1221 -17 c-4 -8 -11 -15 -16 -15 -6 0 -5 6 2 15 7 8 14 15 16 15 2 0 1 -7
-2 -15z m1303 -11 c-3 -3 -12 -4 -19 -1 -8 3 -5 6 6 6 11 1 17 -2 13 -5z
m-1229 -64 c31 -38 39 -60 25 -74 -6 -6 -72 90 -73 107 0 16 17 5 48 -33z
m-33 -42 c36 -59 37 -68 10 -68 -29 0 -31 3 -40 58 -8 50 3 54 30 10z m-264
-47 c13 -11 21 -22 17 -26 -8 -8 -58 23 -58 36 0 14 16 10 41 -10z m-32 -108
c2 -25 -15 -12 -27 20 -19 54 -13 78 8 32 10 -22 19 -46 19 -52z m1338 55 c-3
-8 -6 -5 -6 6 -1 11 2 17 5 13 3 -3 4 -12 1 -19z m1463 -252 c0 -35 -21 -87
-34 -83 -22 7 -19 50 6 69 19 15 20 18 6 18 -10 0 -18 5 -18 10 0 6 9 10 20
10 14 0 20 -7 20 -24z m50 -21 c0 -10 -30 -65 -35 -65 -5 0 4 49 12 63 5 8 23
10 23 2z m151 -62 c-9 -16 -10 -15 -11 8 0 14 3 29 8 33 12 12 14 -22 3 -41z
m-1449 -248 c14 -30 -1 -90 -22 -90 -11 0 -14 10 -13 38 1 20 -2 37 -7 37 -14
0 -12 27 3 33 22 10 27 7 39 -18z m46 8 c4 -10 5 -34 1 -53 -6 -34 -8 -31 -14
26 -1 12 -5 26 -9 33 -4 6 -3 11 3 11 6 0 14 -8 19 -17z m170 -34 c7 -28 12
-65 11 -82 0 -23 -5 -13 -19 38 -21 80 -23 95 -12 95 5 0 14 -23 20 -51z m922
-24 c0 -8 -6 -15 -14 -15 -18 0 -85 -77 -92 -107 -4 -13 -10 -23 -14 -23 -10
0 -37 -73 -51 -137 -6 -29 -15 -53 -21 -53 -21 0 13 150 41 184 9 11 10 16 4
12 -19 -11 -15 5 7 34 11 14 20 30 20 37 0 7 7 10 15 6 9 -3 15 -1 13 4 -4 11
63 72 80 73 6 0 12 -7 12 -15z m-3116 -119 c10 -20 16 -40 13 -43 -11 -11 -89
77 -83 94 6 13 9 14 29 1 12 -8 30 -31 41 -52z m-24 -46 c18 -23 31 -42 29
-44 -2 -2 -21 -6 -41 -10 l-38 -7 0 51 c0 27 4 50 9 50 5 0 24 -18 41 -40z
m1432 -7 c25 -30 58 -102 57 -126 0 -21 -1 -21 -12 -4 -7 10 -29 44 -49 75
-34 52 -39 72 -19 72 4 0 15 -8 23 -17z m-6 -90 c40 -63 42 -73 10 -73 -19 0
-26 7 -31 33 -4 17 -16 44 -26 59 -11 14 -19 34 -19 43 0 26 25 3 66 -62z
m-203 17 c-4 -16 -8 -18 -19 -9 -20 16 -17 29 5 29 14 0 18 -5 14 -20z m-45
-23 c16 -18 1 -35 -28 -31 -14 1 -28 3 -32 3 -16 2 -7 17 15 27 30 16 33 16
45 1z m-1494 -43 c10 -25 -1 -29 -14 -5 -6 12 -7 21 -1 21 5 0 12 -7 15 -16z
m2529 -51 c-7 -2 -19 -2 -25 0 -7 3 -2 5 12 5 14 0 19 -2 13 -5z m767 -400 c0
-31 -34 -113 -45 -110 -13 5 -10 79 5 106 13 26 40 28 40 4z m35 -55 c-21 -48
-41 -75 -32 -43 3 11 11 40 17 64 8 31 14 41 22 33 8 -8 6 -23 -7 -54z m173 2
c-6 -25 -14 -48 -17 -52 -9 -10 -6 86 3 101 16 26 25 -5 14 -49z m-1915 9 l6
-21 31 22 c38 27 46 20 56 -48 5 -36 3 -47 -17 -68 -12 -13 -28 -24 -36 -24
-7 0 -13 -6 -13 -12 -1 -7 -18 -26 -38 -43 -60 -48 -202 -211 -202 -232 0 -7
-4 -13 -9 -13 -4 0 -20 -26 -34 -58 l-25 -59 -57 8 c-31 4 -59 10 -62 13 -10
10 19 77 39 87 11 6 32 8 46 5 25 -6 25 -5 9 8 -16 13 -16 14 0 27 15 12 16
12 9 -1 -5 -8 15 9 45 37 60 58 112 143 92 150 -9 3 -9 10 -1 29 9 20 9 27 -1
34 -11 6 -3 22 32 68 46 59 101 112 117 112 4 0 10 -10 13 -21z m-372 -41 c31
-34 45 -65 35 -76 -9 -8 -106 89 -100 100 10 17 36 7 65 -24z m-31 -54 c53
-50 60 -69 33 -90 -30 -22 -40 -16 -46 28 -3 22 -15 54 -26 69 -41 56 -25 52
39 -7z m-205 -43 c-3 -6 -11 -8 -17 -5 -6 4 -5 9 3 15 16 10 23 4 14 -10z
m-34 -34 c-1 -12 -15 -9 -19 4 -3 6 1 10 8 8 6 -3 11 -8 11 -12z m499 -957 c0
-5 -4 -10 -10 -10 -5 0 -10 5 -10 10 0 6 5 10 10 10 6 0 10 -4 10 -10z m2651
-2318 c48 -31 123 -110 153 -163 20 -34 20 -34 0 -20 -10 8 -46 42 -79 76 -33
33 -81 75 -107 93 -27 18 -48 35 -48 37 0 14 42 2 81 -23z m-681 -31 c0 -5
-17 -20 -37 -32 -21 -13 -62 -46 -92 -74 -46 -43 -52 -46 -38 -20 22 43 98
114 133 125 16 4 30 9 32 9 1 1 2 -3 2 -8z m265 -7 c14 -9 25 -19 25 -23 0 -4
-32 -15 -71 -25 -89 -23 -209 -83 -273 -136 -85 -71 -104 -72 -92 -5 13 70
116 164 181 166 17 0 62 9 100 19 90 23 101 23 130 4z m401 -27 c46 -32 144
-140 144 -160 0 -5 -7 -7 -15 -4 -8 4 -24 -6 -38 -24 l-24 -30 -29 38 c-16 21
-52 64 -81 95 -39 43 -53 66 -53 88 0 25 4 30 24 30 13 0 46 -15 72 -33z m914
-77 l25 -7 -30 -7 c-36 -9 -108 -32 -190 -60 -33 -11 -61 -20 -62 -18 -2 1
-18 -7 -36 -17 -45 -25 -97 -18 -97 14 0 23 19 39 95 82 35 19 54 22 155 22
63 -1 126 -4 140 -9z m-1415 -141 c-22 -12 -44 -25 -49 -30 -6 -5 -17 -9 -25
-9 -20 0 79 60 99 60 8 0 -3 -9 -25 -21z m478 -568 c-31 -42 -117 -81 -181
-81 -31 0 -53 3 -49 6 3 4 34 16 69 28 35 13 88 38 118 58 58 37 75 33 43 -11z"/>
<path d="M9695 15080 c3 -5 8 -10 11 -10 2 0 4 5 4 10 0 6 -5 10 -11 10 -5 0
-7 -4 -4 -10z"/>
<path d="M12695 14880 c-3 -5 1 -10 9 -10 9 0 16 5 16 10 0 6 -4 10 -9 10 -6
0 -13 -4 -16 -10z"/>
<path d="M11510 14571 c0 -6 4 -13 10 -16 6 -3 7 1 4 9 -7 18 -14 21 -14 7z"/>
<path d="M11546 14517 c3 -10 9 -15 12 -12 3 3 0 11 -7 18 -10 9 -11 8 -5 -6z"/>
<path d="M10427 14159 c7 -7 15 -10 18 -7 3 3 -2 9 -12 12 -14 6 -15 5 -6 -5z"/>
<path d="M8905 13930 c-3 -5 1 -10 9 -10 9 0 16 5 16 10 0 6 -4 10 -9 10 -6 0
-13 -4 -16 -10z"/>
<path d="M11510 13320 c-9 -6 -10 -10 -3 -10 6 0 15 5 18 10 8 12 4 12 -15 0z"/>
<path d="M11468 12723 c7 -3 16 -2 19 1 4 3 -2 6 -13 5 -11 0 -14 -3 -6 -6z"/>
<path d="M11530 12680 c0 -5 5 -10 11 -10 5 0 7 5 4 10 -3 6 -8 10 -11 10 -2
0 -4 -4 -4 -10z"/>
<path d="M20270 11286 c-97 -27 -168 -44 -224 -55 -33 -6 -77 -22 -98 -36 -20
-14 -42 -25 -48 -25 -10 0 -21 -8 -55 -37 -7 -7 -18 -13 -23 -13 -5 0 -21 -9
-34 -20 -14 -10 -27 -17 -30 -15 -2 2 -21 -11 -43 -30 -21 -19 -44 -35 -50
-35 -6 0 -18 -8 -27 -17 -26 -28 -46 -43 -58 -43 -5 0 -10 -4 -10 -10 0 -5
-13 -16 -30 -25 -16 -9 -30 -21 -30 -28 0 -7 -39 -45 -87 -85 -88 -71 -123
-101 -199 -170 -45 -41 -73 -64 -124 -104 -57 -43 -127 -112 -133 -130 -4 -10
-12 -18 -19 -18 -26 -1 -131 -152 -167 -240 -5 -14 -28 -63 -50 -110 -56 -121
-66 -178 -46 -276 17 -80 78 -224 95 -224 6 0 10 4 10 8 0 5 19 22 43 39 23
17 54 41 68 54 15 13 56 50 93 83 37 32 80 71 97 87 17 16 35 29 40 29 5 0 9
3 9 8 0 4 12 21 28 37 33 37 52 70 52 89 0 8 -6 17 -12 19 -7 3 -3 6 9 6 17 1
21 5 16 18 -5 12 -2 15 10 10 12 -4 17 -1 17 9 0 10 6 14 15 10 9 -3 20 3 27
14 7 11 16 20 20 20 18 0 49 42 43 59 -6 19 46 72 175 178 41 34 118 98 170
142 52 44 100 80 105 80 6 0 4 -3 -2 -6 -7 -2 -13 -9 -13 -15 0 -6 9 -3 20 7
11 10 17 22 14 27 -3 5 6 6 23 2 15 -4 25 -3 21 1 -9 10 42 51 59 47 7 -2 18
8 24 20 5 13 30 36 55 52 24 15 44 33 44 39 0 7 5 5 10 -3 8 -13 10 -13 10 2
0 10 10 20 25 24 14 3 25 9 25 13 0 4 14 12 30 18 17 6 30 18 30 27 0 10 9 16
22 16 11 0 36 11 54 25 18 14 37 25 42 25 6 0 12 7 16 15 3 8 14 15 25 15 13
0 18 6 16 18 -4 16 99 105 256 220 33 24 57 47 54 51 -10 16 -141 90 -188 105
-56 19 -154 20 -217 2z m205 -196 c-3 -6 -21 -17 -38 -26 -57 -28 -197 -118
-197 -127 0 -4 13 -1 30 8 36 19 44 19 37 1 -3 -8 -1 -16 5 -18 7 -3 4 -12 -8
-26 -21 -25 -36 -29 -28 -7 4 8 1 15 -4 15 -12 0 -25 -18 -28 -38 -2 -8 -6
-17 -10 -20 -4 -4 -4 1 -1 11 8 22 -1 22 -37 -2 -39 -26 -63 -18 -42 14 14 21
14 23 -4 18 -37 -10 -23 33 23 70 83 66 149 110 185 123 44 16 126 19 117 4z
m-65 -100 c-19 -16 -38 -29 -42 -30 -4 0 -14 -7 -23 -16 -9 -9 -19 -13 -23 -9
-4 4 -1 10 6 12 7 3 31 20 53 39 23 19 46 34 52 34 6 0 -4 -13 -23 -30z m-752
-194 c15 -8 35 -23 45 -34 17 -18 17 -23 4 -49 -9 -16 -62 -71 -119 -123 -56
-52 -143 -134 -193 -182 -121 -117 -159 -144 -234 -168 -68 -21 -156 -27 -166
-10 -10 16 31 93 83 158 101 127 392 388 462 415 28 11 91 7 118 -7z"/>
<path d="M21665 11190 c-11 -5 -48 -9 -82 -9 -87 -1 -79 -16 10 -18 72 -2 137
11 137 28 0 11 -38 11 -65 -1z"/>
<path d="M21360 11149 c-194 -25 -235 -31 -238 -40 -2 -5 -38 -9 -80 -10 -42
-1 -88 -4 -102 -9 l-25 -7 28 -12 c16 -6 36 -11 45 -10 11 1 7 4 -8 9 -22 7
-23 8 -5 11 28 4 100 8 253 15 72 3 132 10 132 15 0 5 -19 9 -42 9 -23 0 -39
2 -37 5 4 4 117 11 234 15 34 1 36 3 18 10 -24 10 -88 9 -173 -1z"/>
<path d="M20817 11071 c-41 -7 -48 -28 -7 -23 46 5 70 12 70 22 0 11 -3 11
-63 1z"/>
<path d="M20630 11020 c-11 -8 -7 -9 15 -4 37 8 45 14 19 14 -10 0 -26 -5 -34
-10z"/>
<path d="M20556 10991 c-4 -5 3 -7 14 -4 23 6 26 13 6 13 -8 0 -17 -4 -20 -9z"/>
<path d="M20505 10970 c-3 -5 -1 -10 4 -10 6 0 11 5 11 10 0 6 -2 10 -4 10 -3
0 -8 -4 -11 -10z"/>
<path d="M20685 10964 c-58 -15 -186 -60 -229 -80 -28 -13 -54 -24 -58 -24
-11 0 -72 -42 -76 -52 -2 -5 -9 -8 -15 -8 -15 0 -167 -92 -167 -101 0 -4 -17
-18 -37 -30 -56 -35 -250 -175 -313 -227 -161 -134 -321 -314 -335 -381 -5
-24 -10 -30 -16 -20 -5 9 -9 -11 -9 -53 0 -46 5 -71 15 -82 8 -8 15 -21 15
-29 0 -24 29 -74 55 -93 14 -10 25 -26 25 -35 0 -9 9 -19 20 -22 12 -3 20 -14
20 -25 0 -11 7 -27 15 -36 8 -8 15 -17 15 -20 0 -3 7 -14 16 -23 28 -31 101
-151 118 -193 9 -22 28 -59 43 -83 40 -62 109 -198 117 -230 3 -15 11 -27 16
-27 5 0 7 -6 4 -13 -3 -8 2 -20 11 -27 8 -7 15 -18 15 -26 0 -7 11 -24 24 -37
22 -22 73 -110 86 -147 7 -20 142 -274 149 -280 3 -3 17 -25 30 -50 27 -50 57
-94 84 -124 9 -11 17 -26 17 -33 0 -7 3 -13 8 -13 4 0 18 -17 32 -38 14 -20
43 -57 65 -81 22 -24 39 -48 37 -53 -1 -5 2 -7 8 -3 5 3 10 2 10 -3 0 -12 139
-147 239 -232 29 -25 59 -51 66 -57 8 -7 17 -13 22 -13 4 0 14 -9 21 -20 7
-11 17 -20 22 -20 15 0 100 -67 93 -74 -4 -3 1 -6 10 -6 8 0 17 -3 19 -8 2 -4
52 -41 111 -82 60 -41 123 -87 140 -102 18 -15 43 -33 57 -40 14 -7 31 -21 38
-31 7 -9 17 -15 21 -13 4 3 14 -4 21 -15 8 -10 18 -19 23 -19 9 0 111 -77 164
-124 18 -16 44 -37 57 -45 45 -30 146 -110 218 -173 88 -77 263 -249 269 -263
2 -6 31 -32 64 -57 43 -33 73 -49 105 -54 68 -10 76 -18 45 -38 -51 -34 -175
9 -259 90 -26 24 -51 44 -56 44 -6 0 -10 7 -10 15 0 8 -7 15 -15 15 -9 0 -18
8 -22 18 -6 18 -72 82 -84 82 -4 0 -11 9 -14 21 -4 11 -9 18 -12 15 -5 -4 -42
27 -125 107 -16 15 -33 27 -38 27 -5 0 -21 12 -37 28 -15 15 -33 26 -40 24 -7
-2 -13 3 -13 10 0 14 -71 68 -89 68 -7 0 -25 13 -41 30 -16 16 -33 30 -37 30
-5 0 -14 9 -21 20 -7 12 -25 26 -40 32 -15 6 -22 12 -14 15 7 3 -3 15 -25 30
-21 14 -42 32 -46 40 -5 9 -16 11 -29 7 -12 -4 -18 -2 -14 4 6 10 -19 37 -53
56 -58 34 -150 104 -144 109 3 4 1 7 -6 7 -21 0 -144 86 -189 133 -9 9 -22 17
-29 17 -7 0 -13 4 -13 8 0 10 -77 62 -91 62 -6 0 -7 5 -4 10 3 6 0 10 -8 10
-8 0 -18 7 -21 16 -4 10 -14 14 -26 11 -17 -4 -19 -1 -14 18 5 20 3 22 -22 17
-19 -3 -25 -2 -20 7 9 14 -21 51 -41 51 -19 0 -44 26 -41 41 2 7 -10 19 -27
28 -16 9 -32 17 -35 19 -2 2 2 7 10 13 11 7 7 8 -12 3 -18 -4 -28 -2 -28 5 0
6 5 11 10 11 6 0 10 5 10 10 0 6 -5 10 -11 10 -19 0 -41 30 -34 48 5 14 4 15
-6 5 -7 -7 -20 -13 -29 -13 -12 0 -13 2 -1 9 9 6 11 15 6 27 -8 18 -8 18 -12
2 -7 -27 -23 -21 -34 12 -6 17 -18 30 -27 30 -15 1 -15 2 1 14 25 19 21 27 -9
20 -25 -6 -26 -5 -20 20 7 29 -1 34 -19 10 -10 -15 -13 -15 -27 0 -9 9 -21 16
-26 16 -5 0 -15 7 -22 15 -7 9 -29 15 -54 15 -34 0 -44 -4 -52 -22 -6 -13 -9
-18 -8 -11 2 6 6 29 9 50 6 37 6 38 -9 13 -8 -14 -18 -43 -22 -65 -3 -21 -10
-46 -14 -55 -4 -8 -27 -55 -51 -105 -24 -49 -46 -92 -50 -95 -3 -3 -17 -25
-29 -50 -32 -64 -52 -86 -74 -82 -10 2 -38 1 -61 -2 -31 -5 -44 -12 -48 -26
-4 -17 -14 -20 -61 -20 -65 0 -77 -19 -13 -21 23 -1 34 -3 25 -6 -10 -2 -18
-11 -18 -18 0 -7 -11 -22 -25 -33 -14 -11 -25 -28 -25 -39 0 -23 -60 -83 -83
-83 -9 0 -17 -5 -17 -10 0 -6 10 -8 23 -6 12 3 43 8 69 11 26 3 50 10 53 16 7
10 135 13 135 3 0 -11 -26 -30 -60 -44 -19 -8 -44 -22 -54 -32 -11 -10 -24
-18 -29 -18 -10 0 -28 -18 -43 -45 -6 -10 -19 -23 -29 -29 -26 -15 -45 -33
-45 -43 0 -4 -18 -28 -40 -52 -22 -24 -40 -50 -40 -57 0 -10 -13 -14 -40 -14
-36 0 -40 3 -40 25 0 23 -3 25 -51 25 -48 0 -54 3 -98 49 -40 42 -47 54 -43
80 5 36 -14 43 -21 9 -2 -13 -2 -4 0 20 3 27 -1 52 -10 65 -7 12 -19 69 -26
127 -14 113 -37 271 -52 360 -8 52 -19 147 -38 335 -5 44 -4 84 0 90 5 5 8 23
8 40 -2 27 -2 27 -6 5 -9 -48 -19 -40 -13 10 3 27 3 55 -2 62 -4 7 -8 24 -8
38 0 18 -3 21 -9 12 -6 -9 -8 -5 -8 15 0 59 -8 86 -26 91 -15 4 -16 7 -5 14
10 7 9 11 -6 23 -11 8 -14 15 -8 15 8 0 6 13 -8 40 -11 22 -20 59 -20 83 0 29
-7 51 -20 67 -22 25 -31 22 -95 -34 -38 -33 -50 -29 -52 20 -1 34 -32 126 -33
100 0 -6 -7 -1 -15 10 -13 16 -16 17 -25 4 -5 -8 -10 -26 -10 -40 0 -15 -4
-30 -9 -35 -8 -9 -19 -57 -50 -213 -18 -89 -14 -155 11 -187 29 -37 130 -84
270 -125 l115 -34 13 -136 c19 -201 22 -182 -29 -193 -44 -9 -44 -9 -100 45
-179 173 -353 281 -554 347 l-81 26 -33 85 c-40 104 -47 119 -97 195 -65 98
-173 232 -406 499 -58 67 -118 137 -135 156 -74 86 -121 125 -165 137 -25 6
-46 8 -48 4 -1 -5 -13 -6 -25 -4 -24 5 -24 8 -33 -115 -5 -60 -8 -72 -21 -68
-8 3 -33 9 -56 12 -23 3 -51 9 -62 14 -11 5 -33 11 -50 13 -41 6 -260 85 -314
114 -24 13 -52 23 -61 23 -22 0 -93 68 -108 103 -7 15 -12 42 -12 60 0 54 -10
61 -84 55 -36 -3 -72 -10 -79 -16 -6 -5 -32 -13 -56 -17 -35 -6 -41 -9 -28
-17 10 -5 22 -6 27 -3 5 3 23 -9 40 -28 17 -19 38 -34 48 -33 15 1 17 -7 14
-52 -4 -48 -1 -57 24 -83 15 -16 34 -29 41 -29 7 0 13 -4 13 -9 0 -5 8 -12 18
-15 36 -13 73 -38 85 -57 13 -22 33 -25 40 -6 2 7 8 8 13 3 5 -5 4 -11 -3 -13
-7 -3 -13 -8 -13 -13 0 -15 61 -70 78 -70 9 0 31 -14 49 -32 25 -24 33 -28 33
-15 0 9 4 17 8 17 12 0 42 -34 42 -47 0 -6 7 -16 15 -23 12 -10 15 -10 15 4 0
9 5 16 10 16 6 0 10 -18 10 -40 0 -29 4 -40 15 -40 11 0 15 -11 15 -40 0 -29
4 -40 15 -40 9 0 15 9 15 25 0 14 4 25 8 25 13 0 42 -34 42 -48 0 -8 10 -10
28 -7 26 6 26 6 8 -9 -15 -12 -17 -19 -8 -28 8 -8 15 -8 27 2 8 7 19 9 23 5 4
-4 1 -10 -5 -12 -15 -5 -18 -33 -3 -33 5 0 7 -6 4 -14 -9 -23 36 -76 60 -72
12 2 15 1 9 -1 -20 -7 -16 -19 15 -45 15 -12 28 -25 28 -28 0 -8 45 -59 138
-154 48 -50 122 -129 165 -175 42 -46 86 -95 99 -108 12 -13 22 -26 22 -29 0
-3 10 -15 23 -28 12 -12 33 -38 47 -56 28 -37 95 -121 152 -192 41 -50 55 -82
108 -233 17 -49 35 -99 40 -110 14 -35 41 -108 57 -155 8 -25 21 -59 28 -76 8
-17 30 -73 50 -125 19 -52 39 -103 44 -114 5 -11 17 -42 26 -70 10 -27 25 -68
35 -90 10 -22 30 -69 45 -105 15 -36 35 -83 45 -105 10 -22 28 -65 41 -95 13
-30 26 -57 29 -60 4 -3 14 -25 24 -50 10 -25 22 -50 26 -55 5 -6 23 -40 41
-75 17 -36 72 -139 122 -230 49 -91 103 -190 120 -220 16 -30 33 -59 37 -65 4
-5 25 -41 45 -80 21 -38 56 -99 78 -135 21 -36 48 -94 59 -130 11 -36 26 -78
33 -95 7 -16 16 -41 20 -55 8 -29 47 -113 56 -120 7 -6 32 -52 49 -88 5 -13
17 -58 25 -100 26 -132 37 -168 46 -146 4 10 8 47 8 81 1 58 12 86 26 63 17
-28 92 1 98 39 3 17 5 11 6 -16 0 -24 5 -43 9 -43 11 0 32 -80 38 -140 3 -25
9 -54 14 -65 5 -11 11 -38 13 -60 2 -22 12 -66 21 -98 9 -32 16 -71 16 -88 0
-31 25 -99 39 -109 4 -3 22 -59 39 -125 17 -66 35 -132 40 -146 6 -14 18 -57
27 -95 18 -70 31 -97 45 -89 4 3 10 -19 13 -48 2 -30 0 -55 -5 -58 -7 -5 -7
-13 0 -24 9 -17 10 -16 17 6 11 35 8 366 -4 489 -18 174 -23 297 -11 280 8
-13 10 -13 10 2 0 9 -6 18 -12 20 -10 4 -10 10 0 32 10 23 9 39 -4 96 -10 38
-21 67 -26 64 -4 -3 -8 4 -8 15 0 11 -7 36 -16 55 -16 32 -16 35 3 63 46 64
119 271 143 403 7 36 15 132 19 213 6 127 9 150 24 158 41 24 181 134 250 199
81 76 115 90 101 43 -15 -53 -6 -93 41 -174 56 -94 105 -139 154 -139 33 0 33
-1 27 -32 -16 -83 -18 -111 -7 -175 37 -210 231 -403 406 -403 44 0 45 -1 45
-31 0 -54 74 -180 139 -236 18 -15 40 -23 71 -23 38 -1 49 -6 73 -35 l28 -34
-15 -52 c-34 -114 -17 -214 64 -365 46 -86 172 -278 220 -335 27 -31 29 -39
20 -63 -5 -15 -10 -59 -10 -98 0 -60 -4 -74 -24 -99 -36 -42 -112 -198 -157
-321 -31 -85 -49 -117 -82 -150 -110 -112 -184 -284 -205 -477 l-7 -64 -47
-12 c-25 -6 -72 -27 -103 -46 -59 -35 -170 -135 -199 -179 l-16 -24 -37 36
c-45 43 -197 138 -303 190 -257 126 -452 172 -731 172 l-166 1 51 28 c74 40
129 97 138 141 3 17 -3 19 -62 17 -210 -8 -318 -23 -372 -51 -21 -11 -172 -15
-210 -5 -34 9 -34 11 -4 66 18 32 26 68 31 132 4 48 11 87 16 87 5 0 9 -7 9
-16 0 -14 3 -14 15 -4 21 18 22 180 1 180 -8 0 -16 -6 -19 -12 -2 -8 -8 -9
-13 -4 -5 5 -4 11 4 13 6 3 12 11 12 19 0 10 -12 14 -40 14 -22 0 -40 5 -40
11 0 12 -17 29 -45 45 -11 6 -24 20 -30 32 -5 12 -13 22 -17 22 -5 0 -8 6 -8
13 0 7 -13 26 -30 42 -16 16 -30 38 -30 49 0 12 -9 27 -20 34 -12 7 -25 24
-30 38 -5 13 -18 27 -27 31 -23 8 -53 33 -53 45 0 4 7 8 15 8 11 0 15 11 15
40 0 29 -4 40 -15 40 -11 0 -15 11 -15 40 0 29 -4 40 -15 40 -12 0 -15 16 -15
80 0 64 3 80 15 80 11 0 15 11 15 40 0 29 -4 40 -15 40 -11 0 -15 11 -15 40 0
22 -4 40 -10 40 -5 0 -10 18 -10 40 0 44 4 48 26 25 9 -8 29 -15 45 -15 16 0
29 -4 29 -10 0 -5 9 -10 20 -10 11 0 20 -7 20 -15 0 -8 5 -15 10 -15 14 0 12
48 -4 106 -7 27 -21 87 -31 134 -9 47 -21 95 -26 108 -5 13 -9 34 -9 47 0 13
-5 27 -11 31 -9 5 -10 -9 -7 -50 3 -36 1 -52 -4 -42 -5 8 -8 30 -7 48 3 92 0
130 -15 208 -9 46 -21 87 -25 90 -5 3 -11 32 -15 65 -4 33 -11 74 -16 90 -5
17 -13 48 -18 70 -6 22 -22 83 -36 135 -14 52 -35 131 -46 175 -11 44 -25 88
-30 97 -6 10 -10 27 -10 38 0 11 -4 28 -9 38 -15 31 -40 116 -47 162 -4 25
-10 50 -14 55 -4 6 -13 28 -19 50 -7 22 -16 49 -20 60 -5 11 -14 33 -20 48 -6
15 -11 39 -11 52 0 13 -3 25 -7 27 -7 2 -34 68 -83 193 -15 38 -134 280 -150
305 -9 14 -30 50 -45 80 -16 30 -48 87 -72 126 -24 39 -43 75 -43 81 0 6 -7
13 -14 16 -8 3 -23 21 -32 39 -9 18 -23 40 -31 48 -21 22 -83 123 -83 135 0 5
-9 16 -20 23 -11 7 -20 19 -20 28 0 10 -5 14 -15 10 -11 -4 -17 3 -22 25 -4
22 -8 27 -14 17 -7 -10 -12 -10 -27 -1 -27 16 -42 -1 -42 -49 l0 -38 -80 0
-80 0 0 -80 0 -80 80 0 80 0 0 -40 0 -40 40 0 40 0 0 -40 0 -40 40 0 c22 0 40
-4 40 -10 0 -5 -18 -10 -40 -10 -22 0 -40 5 -40 10 0 6 -60 10 -160 10 -100 0
-160 -4 -160 -10 0 -5 -18 -10 -40 -10 l-40 0 0 50 0 50 -40 0 -40 0 0 40 0
40 -80 0 c-47 0 -80 -4 -80 -10 0 -5 -18 -10 -40 -10 l-40 0 0 40 0 40 -40 0
-40 0 0 50 0 50 -120 0 -120 0 0 30 c0 28 -2 30 -39 30 -37 0 -40 -2 -44 -32
-3 -18 -4 8 -3 59 0 50 -2 86 -6 80 -10 -17 -21 59 -16 119 3 30 1 57 -2 59
-10 6 -24 -359 -16 -421 3 -27 8 -186 12 -354 3 -168 7 -307 9 -310 2 -3 0
-12 -6 -20 -7 -12 -17 -6 -50 30 -23 25 -84 92 -138 149 -53 57 -97 107 -99
112 -2 5 -10 2 -18 -5 -10 -10 -14 -38 -14 -90 0 -61 -3 -76 -15 -76 -11 0
-15 -11 -15 -40 0 -36 -2 -40 -25 -40 -22 0 -25 -4 -25 -40 0 -36 -2 -40 -25
-40 -22 0 -25 4 -25 40 0 29 -4 40 -15 40 -12 0 -15 -16 -15 -80 0 -64 3 -80
15 -80 8 0 15 -7 15 -16 0 -14 -2 -14 -22 0 -12 9 -32 16 -43 15 -19 0 -18 -1
3 -9 12 -5 22 -14 22 -20 0 -5 9 -10 20 -10 12 0 20 -7 20 -17 0 -11 22 -32
53 -51 28 -17 63 -41 77 -52 14 -11 59 -45 100 -76 41 -31 80 -62 86 -70 6 -8
18 -14 26 -14 8 0 26 -11 40 -24 14 -12 33 -26 42 -29 9 -4 16 -11 16 -17 0
-5 9 -10 20 -10 11 0 20 -5 20 -10 0 -13 61 -69 76 -70 10 0 43 -26 110 -90
12 -11 26 -20 31 -20 9 0 53 -54 53 -65 0 -3 -7 -5 -15 -5 -8 0 -15 9 -15 19
0 15 -9 20 -40 23 -28 2 -40 0 -40 -9 0 -7 -4 -13 -9 -13 -5 0 -23 -14 -40
-31 -31 -31 -39 -49 -21 -49 6 0 10 -18 10 -40 0 -22 -4 -40 -10 -40 -5 0 -10
14 -10 31 l0 31 -39 -33 c-39 -34 -39 -34 -40 -111 l-1 -78 -40 0 -40 0 0 -40
0 -40 -55 0 -55 0 0 -40 c0 -29 4 -40 15 -40 11 0 15 -11 15 -40 l0 -40 -40 0
-40 0 0 -80 c0 -47 -4 -80 -10 -80 -5 0 -10 18 -10 40 0 38 -2 40 -29 40 -16
0 -31 -6 -34 -12 -2 -8 -8 -9 -13 -4 -5 5 -4 11 4 13 7 3 12 25 12 59 l0 54
-49 0 c-41 0 -53 4 -69 25 -11 14 -25 25 -31 25 -6 0 -11 5 -11 11 0 6 -11 20
-25 31 -14 11 -25 25 -25 33 0 7 -7 18 -15 25 -8 7 -15 21 -15 32 0 10 -16 32
-35 49 -31 27 -95 140 -95 167 0 5 -7 15 -15 22 -8 7 -15 25 -15 41 0 16 -4
29 -9 29 -5 0 -20 27 -33 60 -12 33 -26 60 -30 60 -5 0 -8 9 -8 19 0 11 -4 22
-9 26 -5 3 -13 20 -17 38 -10 48 -37 92 -73 123 -22 18 -28 29 -21 34 9 5 7
16 -5 41 -10 19 -21 36 -24 39 -12 10 -34 60 -35 82 -3 46 -18 78 -36 78 -20
0 -23 13 -34 140 -3 30 -6 57 -6 60 0 3 -5 -3 -11 -13 -10 -17 -13 -16 -30 13
-11 17 -24 28 -29 25 -6 -4 -13 2 -16 12 -14 48 -39 83 -66 94 -16 6 -26 15
-21 18 16 12 13 31 -4 31 -15 0 -16 2 -3 10 8 5 11 10 5 10 -13 0 -75 53 -75
64 0 5 -11 19 -25 32 -14 13 -25 26 -25 29 0 8 -27 35 -35 35 -4 0 -13 7 -22
15 -13 14 -18 13 -45 -2 -17 -10 -32 -24 -35 -30 -7 -18 -23 -16 -23 2 0 25
-16 17 -32 -17 -17 -36 -22 -31 -33 35 -7 45 -19 37 -52 -33 -29 -62 -34 -74
-57 -163 -12 -43 -24 -78 -28 -78 -21 2 -45 -38 -42 -70 l3 -34 -8 33 c-10 38
-23 56 -19 26 4 -31 -12 -163 -21 -169 -5 -2 -62 -21 -127 -41 -276 -83 -548
-208 -765 -351 -36 -23 -70 -43 -75 -43 -5 0 -52 57 -104 126 l-95 127 -157
103 c-100 66 -170 120 -194 149 -39 48 -86 78 -142 90 -21 4 -37 16 -46 33 -8
15 -37 56 -65 92 -259 328 -712 444 -1128 290 l-61 -23 -54 48 c-64 57 -160
127 -225 162 -98 54 -137 73 -149 73 -6 0 -25 7 -40 15 -16 8 -37 15 -46 15
-9 0 -29 5 -45 12 -15 6 -36 10 -46 9 -10 -1 -26 4 -35 11 -36 31 -363 83
-459 74 -60 -5 -55 -12 -72 102 -34 217 -261 372 -626 427 -189 28 -307 16
-425 -45 -76 -40 -160 -109 -160 -132 0 -7 -9 -24 -20 -38 -17 -22 -20 -22
-20 -6 0 16 -6 18 -57 12 -119 -14 -246 -56 -328 -108 -42 -27 -133 -125 -148
-161 -78 -175 -122 -308 -147 -446 -5 -25 -16 -86 -25 -136 -59 -318 -57 -473
10 -650 33 -89 28 -115 -11 -52 -16 26 -32 47 -35 47 -4 0 -10 -23 -13 -52 -9
-68 -23 -93 -42 -77 -11 9 -14 8 -14 -2 0 -26 -201 -239 -225 -239 -15 0 -95
-64 -95 -76 0 -7 -18 -15 -40 -19 -25 -4 -40 -12 -40 -21 0 -8 -10 -14 -21
-14 -29 0 -189 -61 -189 -72 0 -4 -6 -8 -14 -8 -8 0 -16 -6 -19 -12 -6 -16 -8
-9 -32 90 -13 54 -15 76 -7 81 16 10 -5 81 -23 81 -8 0 -15 -4 -15 -10 0 -5
-18 -10 -40 -10 l-40 0 -1 -72 c-1 -46 -4 -64 -8 -48 -11 39 -18 13 -26 -88
-10 -128 -29 -124 -41 9 -8 83 18 310 53 459 8 36 21 94 28 130 17 84 52 207
70 245 25 56 47 135 42 149 -14 37 -95 30 -462 -35 -33 -6 -85 -15 -115 -20
-30 -6 -89 -16 -130 -24 -41 -8 -104 -19 -140 -25 -36 -7 -87 -16 -115 -21
-69 -12 -120 -24 -185 -44 -30 -9 -74 -21 -97 -26 -24 -6 -43 -15 -43 -20 0
-5 -7 -9 -16 -9 -16 0 -113 -52 -143 -76 -52 -43 -131 -123 -131 -132 0 -7 -4
-12 -8 -12 -5 0 -17 -16 -28 -35 -10 -19 -22 -35 -26 -35 -5 0 -8 -6 -8 -13 0
-8 -9 -22 -20 -32 -11 -10 -20 -31 -20 -46 0 -33 -19 -79 -32 -79 -5 0 -8 -28
-7 -62 2 -51 0 -64 -13 -66 -11 -2 -18 5 -21 20 -2 13 -2 4 0 -20 4 -43 -14
-112 -30 -112 -4 0 -5 -10 -2 -21 5 -14 3 -19 -4 -15 -6 4 -13 -4 -17 -18 -4
-16 -11 -23 -20 -19 -10 4 -12 0 -8 -11 3 -9 1 -22 -5 -30 -6 -7 -13 -44 -16
-81 -3 -37 -9 -73 -14 -79 -5 -6 -15 -42 -21 -79 -7 -37 -16 -67 -20 -67 -18
0 -394 161 -407 174 -3 3 12 25 35 49 50 55 67 120 60 238 -7 122 -47 189
-165 271 -25 16 -43 37 -43 47 0 11 -7 21 -15 25 -8 3 -14 9 -14 13 5 20 -17
45 -50 59 -33 15 -34 17 -16 25 15 7 12 8 -11 3 -22 -3 -37 0 -48 12 -12 11
-21 13 -27 7 -7 -7 -21 -6 -42 5 -37 18 -177 30 -177 14 0 -6 -16 -5 -45 4
-25 7 -52 11 -60 7 -8 -3 -32 -2 -53 2 -31 6 -34 9 -17 16 16 6 15 8 -10 7
-28 -2 -284 80 -295 93 -3 4 -36 14 -75 23 -38 9 -77 20 -85 25 -8 4 -69 24
-135 45 -66 21 -129 42 -140 46 -58 23 -178 59 -215 65 -14 3 -17 2 -8 -1 10
-3 18 -9 18 -14 0 -4 18 -11 40 -15 22 -4 40 -11 40 -16 0 -5 9 -9 20 -9 12 0
31 -6 43 -14 12 -7 42 -18 67 -25 25 -6 76 -26 114 -46 39 -19 76 -35 84 -35
7 0 23 -5 35 -12 21 -11 21 -11 2 -19 -15 -6 -11 -8 17 -8 20 -1 40 -5 43 -11
3 -5 17 -10 31 -10 15 0 24 -6 24 -15 0 -21 -59 -11 -190 32 -79 26 -128 36
-195 40 -49 2 -92 8 -93 14 -2 5 -13 9 -23 9 -11 0 -18 4 -14 9 3 5 -9 9 -27
9 -64 -1 -147 11 -177 26 -30 16 -49 36 -33 36 4 0 9 22 9 49 1 42 -2 48 -17
44 -10 -3 -21 0 -24 6 -5 7 5 11 28 11 19 0 36 -5 38 -11 2 -6 11 -7 22 -3 15
6 10 10 -25 21 -24 7 -52 13 -61 13 -23 0 -48 -27 -42 -45 9 -22 -2 -18 -31
11 -20 20 -26 34 -23 56 l5 30 -96 -4 c-142 -6 -209 -47 -297 -179 -50 -76
-68 -144 -41 -155 10 -4 14 -15 12 -35 -2 -16 0 -29 5 -29 6 0 10 -12 11 -27
0 -16 3 -22 6 -15 3 8 11 5 24 -12 10 -13 19 -27 19 -30 0 -16 104 -104 190
-160 52 -35 115 -83 140 -107 60 -59 149 -131 255 -204 47 -33 82 -61 77 -63
-5 -1 -33 6 -61 18 -28 11 -64 20 -78 20 -25 0 -70 12 -118 31 -11 4 -51 17
-90 30 -38 12 -74 25 -80 30 -5 5 -17 9 -27 9 -10 0 -18 5 -18 10 0 6 -25 10
-55 10 -31 0 -68 6 -83 14 -40 20 -102 31 -102 17 0 -6 10 -11 23 -11 12 0 40
-9 62 -20 22 -11 47 -20 57 -20 10 0 18 -5 18 -11 0 -6 11 -20 25 -31 28 -22
32 -38 10 -38 -11 0 -15 -11 -15 -40 0 -38 2 -40 29 -40 16 0 31 6 34 13 2 7
8 8 13 3 5 -5 4 -11 -3 -13 -8 -3 -13 -22 -13 -44 0 -28 -4 -39 -15 -39 -11 0
-15 -11 -15 -40 0 -29 4 -40 15 -40 12 0 15 -13 15 -55 l0 -55 40 0 c29 0 40
4 40 15 0 11 11 15 40 15 36 0 40 3 40 25 0 23 4 25 40 25 29 0 40 -4 40 -15
0 -11 12 -15 50 -15 32 0 50 -4 50 -12 0 -14 50 -68 63 -68 4 0 15 -6 22 -14
12 -12 12 -15 -2 -20 -9 -4 -19 -2 -23 4 -4 6 -13 5 -26 -4 -22 -17 -19 -19
69 -36 31 -6 57 -16 57 -21 0 -5 13 -9 29 -9 17 0 33 -4 36 -10 3 -5 19 -10
35 -10 16 0 32 -4 35 -10 3 -5 21 -10 38 -10 18 0 48 -5 67 -11 19 -6 78 -17
130 -24 60 -9 75 -13 40 -11 -30 1 -68 -1 -85 -5 -29 -6 -29 -7 10 -9 22 -1
78 -3 125 -4 104 -3 136 -11 119 -32 -7 -9 -21 -13 -33 -10 -12 3 -28 1 -35
-4 -10 -6 1 -10 35 -15 27 -3 78 -13 114 -21 51 -12 251 -32 342 -34 12 0 21
-14 28 -42 25 -93 56 -163 94 -212 22 -28 44 -53 48 -54 5 -2 14 -9 21 -16 6
-7 20 -15 30 -19 9 -3 17 -11 17 -17 0 -13 3 -13 -71 6 -77 20 -199 15 -245
-9 -44 -23 -108 -88 -152 -155 -48 -74 -64 -91 -70 -74 -2 6 -10 12 -18 12 -8
0 -14 6 -14 13 0 27 -91 50 -105 27 -4 -6 9 -17 27 -25 l33 -14 -28 -1 c-29 0
-57 -20 -57 -39 0 -6 -18 -11 -40 -11 -29 0 -40 -4 -40 -15 0 -8 5 -15 10 -15
6 0 10 -4 10 -10 0 -6 -50 -10 -130 -10 l-130 0 0 50 c0 38 -4 50 -15 50 -11
0 -15 -12 -15 -49 0 -41 -4 -53 -25 -69 -25 -20 -33 -42 -15 -42 6 0 10 -4 10
-10 0 -5 -22 -10 -50 -10 -27 0 -50 5 -50 10 0 6 -18 10 -40 10 l-40 0 0 -50
0 -50 -120 0 c-100 0 -120 -2 -120 -15 0 -12 -16 -15 -80 -15 l-80 0 0 -95 0
-95 -40 0 -40 0 0 -50 0 -50 -40 0 c-38 0 -40 -2 -40 -30 0 -27 -3 -30 -30
-30 -16 0 -30 -4 -30 -10 0 -5 -22 -10 -50 -10 -27 0 -50 5 -50 10 0 6 -18 10
-40 10 -22 0 -40 -4 -40 -10 0 -6 -33 -10 -80 -10 -64 0 -80 -3 -80 -15 0 -11
-11 -15 -40 -15 -36 0 -40 -2 -40 -25 0 -24 -2 -25 -76 -25 -52 0 -80 4 -90
14 -17 17 -20 166 -4 166 6 0 10 33 10 80 0 64 3 80 15 80 12 0 15 19 15 113
0 115 14 181 52 238 19 30 48 139 48 182 0 24 -3 28 -10 17 -5 -8 -10 -27 -10
-41 0 -15 -8 -33 -17 -40 -15 -12 -16 -12 -9 6 4 11 9 52 12 90 4 58 2 66 -7
48 -9 -18 -21 -23 -51 -23 -34 0 -38 -3 -38 -25 0 -22 -4 -25 -40 -25 -29 0
-40 -4 -40 -15 0 -11 -11 -15 -40 -15 -29 0 -40 4 -40 15 0 11 -12 15 -50 15
-27 0 -50 5 -50 10 0 6 12 10 26 10 22 0 25 2 14 15 -7 8 -18 15 -25 15 -8 0
-22 11 -33 25 -20 25 -42 33 -42 15 0 -5 -18 -10 -39 -10 -29 0 -41 5 -44 17
-4 14 -5 13 -6 -4 0 -12 -5 -25 -11 -28 -15 -9 -12 37 5 78 8 19 11 37 8 41
-7 7 -43 -89 -43 -115 0 -10 -6 -24 -13 -31 -7 -7 -23 -47 -36 -88 -43 -140
-72 -225 -82 -236 -5 -6 -6 -13 -3 -16 3 -4 -4 -24 -15 -47 -12 -22 -21 -56
-21 -75 0 -19 -4 -36 -9 -38 -5 -1 -11 -34 -14 -73 -3 -38 -13 -90 -22 -115
-9 -25 -23 -72 -30 -105 -8 -33 -26 -109 -39 -170 -14 -60 -31 -135 -36 -165
-16 -84 -49 -237 -65 -310 -39 -171 -90 -577 -79 -640 12 -75 35 -108 99 -138
33 -16 83 -35 110 -42 28 -6 66 -18 87 -26 69 -25 315 -84 389 -93 48 -5 62
-9 39 -11 l-35 -3 35 -7 c23 -5 27 -8 13 -9 -17 -1 -28 -13 -43 -50 -12 -26
-36 -63 -55 -81 -21 -20 -31 -38 -28 -50 3 -10 0 -21 -6 -24 -15 -10 -14 -73
2 -92 41 -50 60 -63 109 -74 176 -38 428 -52 943 -52 694 0 1312 14 1415 31
30 5 114 10 185 10 72 1 168 6 215 11 47 6 172 14 279 20 107 5 197 13 200 18
3 5 69 12 146 16 182 8 224 11 380 25 72 6 312 16 535 21 223 6 470 15 550 20
97 7 198 7 305 0 88 -6 426 -15 750 -21 458 -8 610 -7 680 2 145 20 269 21
625 6 184 -8 409 -16 499 -16 91 -1 170 -5 175 -9 6 -4 124 -7 261 -7 264 -1
526 -9 765 -25 80 -5 207 -12 283 -15 76 -3 236 -14 355 -25 119 -10 318 -24
442 -30 124 -5 286 -13 360 -16 74 -4 221 -8 325 -9 105 -1 312 -7 460 -13
309 -12 914 -25 1345 -27 335 -2 1040 -21 1085 -30 17 -3 149 -7 295 -9 146
-2 336 -9 424 -16 238 -17 1768 -4 2336 20 464 19 1030 15 1515 -11 233 -13
725 -7 909 10 134 12 331 46 391 67 22 7 48 14 58 14 9 0 17 4 17 10 0 5 18
19 40 30 22 11 40 24 40 28 -1 12 -37 52 -48 52 -5 0 -17 9 -27 20 -16 18 -16
20 -2 20 37 0 13 19 -57 44 -64 24 -73 30 -68 48 4 18 3 19 -16 7 -11 -7 -18
-18 -15 -25 2 -6 -1 -15 -8 -19 -9 -6 -10 1 -5 26 30 163 33 271 10 350 -20
69 -69 162 -113 217 l-34 43 29 32 c16 17 40 43 54 58 23 24 50 63 50 72 0 3
-11 2 -24 0 -21 -4 -27 1 -39 28 -23 55 -36 61 -86 38 l-43 -19 6 32 c15 89
27 226 22 260 -5 30 1 53 33 120 22 46 51 117 66 158 14 41 30 83 35 92 6 10
15 58 22 108 10 74 16 90 30 90 9 0 22 -8 27 -17 10 -17 10 -17 11 0 0 9 5 17
11 17 8 0 9 12 4 38 -8 41 -9 121 -1 129 3 3 12 -2 21 -11 9 -9 20 -16 25 -16
5 0 24 -25 42 -55 18 -30 36 -55 40 -55 11 0 48 71 60 116 l12 43 85 26 c189
58 349 128 492 215 44 28 85 50 90 50 5 0 9 4 9 9 0 5 8 12 18 15 10 3 38 24
62 46 25 22 50 40 55 40 14 0 141 131 148 152 3 10 2 20 -3 23 -5 3 -11 -4
-15 -15 -7 -22 -20 -26 -30 -10 -3 6 1 13 9 16 20 8 21 24 1 24 -8 0 -15 5
-15 10 0 6 -6 10 -14 10 -11 0 -15 20 -18 83 -5 89 -33 179 -74 234 -13 17
-24 36 -24 41 0 6 -5 12 -10 14 -12 4 -2 68 11 68 5 0 9 -4 9 -10 0 -5 5 -10
10 -10 6 0 10 9 10 19 0 11 10 27 22 35 12 9 17 16 10 16 -6 0 -12 7 -12 15 0
8 5 15 10 15 6 0 15 10 20 23 l9 22 0 -22 c1 -28 17 -30 26 -3 3 11 11 20 18
20 8 0 8 3 0 11 -19 19 -4 40 19 28 16 -9 20 -7 25 10 3 13 10 18 21 14 12 -5
14 -1 9 24 -5 27 -4 30 13 26 12 -3 22 2 29 15 6 11 27 37 46 58 20 21 33 44
30 52 -3 7 4 27 16 43 12 17 23 52 26 84 3 30 8 55 10 55 9 0 68 -34 81 -47 8
-8 17 -11 21 -8 3 4 -5 15 -19 27 -16 13 -19 18 -7 14 20 -6 22 4 5 24 -10 11
-9 11 7 0 11 -8 29 -26 39 -39 l20 -24 18 23 c11 13 31 25 46 26 46 5 73 14
67 23 -2 5 2 22 10 37 10 21 11 30 3 35 -14 9 -20 132 -8 164 20 52 90 17 90
-44 0 -13 -13 -48 -30 -77 -31 -55 -25 -81 10 -49 44 40 66 187 35 232 -22 31
-10 50 37 57 63 10 152 78 142 108 -3 10 -1 18 5 18 6 0 11 5 11 11 0 6 -7 8
-16 5 -11 -4 -15 -2 -11 8 4 11 1 13 -10 9 -13 -5 -14 2 -10 43 2 27 12 81 21
119 18 77 26 259 13 317 l-8 36 41 7 c30 5 44 13 50 30 5 13 12 24 17 26 4 2
19 24 32 48 13 24 19 41 14 38 -6 -4 -13 3 -16 16 -27 113 -15 177 34 177 35
0 49 -24 49 -82 0 -27 -8 -52 -20 -68 -24 -31 -25 -52 -2 -48 49 9 71 162 32
238 -11 21 -28 45 -38 52 -16 11 -18 29 -17 138 0 125 -15 220 -40 250 -7 8
-18 36 -26 63 -7 26 -16 47 -19 47 -3 0 -15 -24 -28 -52 l-22 -52 47 -93 c38
-75 48 -106 51 -157 4 -54 1 -69 -21 -102 -25 -40 -57 -73 -57 -59 0 5 6 16
14 24 7 9 21 37 31 63 14 39 15 55 6 97 -6 29 -18 62 -26 75 -8 12 -12 26 -8
29 3 4 0 15 -8 24 -8 10 -21 30 -29 46 -8 17 -19 26 -29 23 -9 -3 -35 -7 -58
-11 -43 -7 -102 -43 -161 -101 -18 -17 -46 -37 -62 -44 -17 -7 -30 -16 -30
-21 0 -5 -7 -9 -15 -9 -12 0 -11 4 4 19 10 10 27 24 37 30 11 6 14 11 6 11
-12 0 -69 -38 -100 -67 -7 -7 -20 -13 -28 -13 -8 0 -14 -4 -14 -9 0 -15 -79
-18 -85 -3 -10 26 -5 41 10 36 10 -4 15 0 15 11 0 14 32 69 50 85 3 3 19 32
35 65 17 33 36 59 43 58 6 -2 12 6 12 16 0 10 6 21 13 24 8 3 22 21 31 41 9
20 21 36 26 36 6 0 10 10 10 23 0 13 4 27 10 33 5 5 16 38 24 74 13 53 13 78
4 135 -6 38 -17 77 -24 86 -8 8 -14 23 -14 32 0 9 -5 19 -10 22 -6 3 -15 27
-21 51 -7 25 -20 51 -30 57 -11 7 -19 20 -19 29 0 19 -57 121 -71 126 -5 2 -9
14 -9 26 0 13 -9 31 -20 41 -11 10 -20 28 -20 40 0 12 -9 34 -20 48 -11 14
-20 32 -20 40 0 7 -9 22 -20 32 -11 10 -20 24 -20 30 0 7 -7 15 -15 19 -8 3
-19 16 -24 28 -5 13 -25 47 -45 77 -20 29 -36 56 -36 60 0 3 -10 11 -22 16
-12 6 -23 16 -26 23 -5 17 23 15 42 -3 20 -21 26 -19 26 9 0 13 -11 40 -25 60
-14 20 -25 43 -25 51 0 7 -6 26 -14 42 -8 15 -19 39 -25 53 l-11 25 6 -25 c6
-23 5 -22 -21 9 -20 23 -29 44 -28 67 1 42 -26 48 -28 7 -2 -27 -2 -27 -6 -3
-3 14 -9 29 -14 35 -5 5 -9 17 -9 26 0 10 -14 29 -30 43 -27 22 -30 30 -26 63
3 21 3 30 0 21 -7 -25 -19 -22 -42 7 -11 14 -24 25 -30 25 -6 0 -9 17 -7 38 1
20 1 29 -2 20 -2 -10 -7 -18 -9 -18 -12 0 -254 258 -254 271 0 5 -5 9 -11 9
-6 0 -40 29 -75 65 -35 36 -68 65 -74 65 -5 0 -16 13 -24 29 -9 16 -28 34 -43
39 -33 13 -73 46 -73 61 0 13 -48 61 -61 61 -6 0 -29 19 -51 42 -31 32 -42 38
-48 28 -7 -11 -11 -9 -18 10 -12 30 -63 78 -79 73 -6 -2 -10 4 -9 13 1 22 -22
30 -30 10 -3 -8 4 -29 16 -46 28 -40 22 -57 -11 -31 -15 11 -29 18 -31 15 -3
-2 -13 7 -22 21 -9 14 -22 23 -28 19 -6 -4 -8 -3 -5 3 4 6 0 16 -8 23 -12 10
-15 9 -16 -6 0 -17 -1 -17 -7 -2 -4 9 -19 26 -34 38 -15 12 -27 24 -26 28 2 4
-9 20 -24 35 -23 25 -27 26 -31 10 -3 -14 -7 -12 -18 13 -9 20 -19 29 -29 26
-8 -3 -12 -1 -8 3 4 4 -6 15 -21 24 -16 9 -46 31 -67 49 -20 17 -41 32 -45 32
-5 0 -6 7 -2 15 3 9 2 15 -3 13 -14 -4 -56 22 -84 51 -14 15 -37 33 -52 40
-17 9 -24 19 -21 29 4 10 2 13 -6 8 -7 -5 -20 3 -32 18 -11 14 -25 26 -30 26
-5 0 -28 18 -50 40 -22 22 -47 40 -55 40 -8 0 -14 5 -14 10 0 6 -8 14 -18 18
-21 8 -60 38 -129 99 -27 24 -53 43 -59 43 -7 0 -14 6 -17 14 -3 8 -26 26 -51
41 -37 21 -62 28 -123 30 -43 2 -87 2 -98 -1z m-1991 -1840 c9 -24 7 -27 -9
-10 -17 17 -19 26 -6 26 5 0 12 -7 15 -16z m4353 -126 c-3 -8 -6 -5 -6 6 -1
11 2 17 5 13 3 -3 4 -12 1 -19z m-2970 -750 c-3 -8 -6 -5 -6 6 -1 11 2 17 5
13 3 -3 4 -12 1 -19z m-10348 -172 c-2 -2 -53 -6 -114 -9 -65 -3 -102 -2 -90
3 19 8 213 14 204 6z m509 -96 c42 -17 88 -39 102 -50 21 -17 15 -16 -35 6
-33 15 -85 37 -115 50 -80 34 -43 29 48 -6z m-620 6 c35 -18 80 -69 97 -110
19 -44 3 -72 -60 -105 -43 -22 -65 -26 -162 -30 -66 -2 -113 1 -113 6 0 19 52
139 78 180 41 66 103 89 160 59z m626 -86 c26 -14 65 -39 87 -58 34 -29 39
-39 38 -75 0 -23 -6 -71 -13 -107 -11 -59 -14 -65 -38 -68 -37 -4 -73 17 -144
85 -123 118 -149 179 -98 230 22 22 32 25 73 21 26 -3 69 -15 95 -28z m-974
-45 c0 -2 -8 -28 -19 -57 -10 -29 -23 -69 -29 -88 -11 -35 -11 -35 -6 10 7 58
33 140 45 140 5 0 9 -2 9 -5z m9817 -32 c-3 -10 -5 -4 -5 12 0 17 2 24 5 18 2
-7 2 -21 0 -30z m20 -150 c-3 -10 -5 -2 -5 17 0 19 2 27 5 18 2 -10 2 -26 0
-35z m-2647 -73 c0 -47 -4 -80 -10 -80 -6 0 -10 33 -10 80 0 47 4 80 10 80 6
0 10 -33 10 -80z m-6825 60 c4 -6 -6 -10 -22 -11 -15 0 -67 -4 -115 -7 -48 -4
-84 -4 -79 1 21 21 204 36 216 17z m-428 -62 c-2 -13 -4 -3 -4 22 0 25 2 35 4
23 2 -13 2 -33 0 -45z m-122 32 c3 -5 1 -10 -4 -10 -6 0 -11 5 -11 10 0 6 2
10 4 10 3 0 8 -4 11 -10z m-65 -30 c0 -5 -2 -10 -4 -10 -3 0 -8 5 -11 10 -3 6
-1 10 4 10 6 0 11 -4 11 -10z m1172 -52 c77 -33 127 -67 78 -53 -36 11 -177
85 -163 85 7 0 45 -14 85 -32z m-1247 -17 c-19 -12 -23 -21 -18 -43 4 -18 1
-29 -8 -33 -10 -4 -13 -21 -11 -63 3 -44 0 -61 -12 -71 -17 -14 -21 -37 -8
-43 4 -1 2 -14 -4 -28 -12 -23 -13 -23 -19 -5 -18 54 -22 56 -17 8 4 -44 2
-53 -12 -53 -9 0 -16 -4 -16 -10 0 -5 -4 -10 -10 -10 -12 0 -13 47 -1 54 4 3
11 30 15 61 3 30 15 69 26 87 11 18 20 41 20 50 0 16 20 50 65 109 13 18 22
23 27 16 4 -7 -3 -18 -17 -26z m8695 -1 c0 -5 -4 -10 -10 -10 -5 0 -10 5 -10
10 0 6 5 10 10 10 6 0 10 -4 10 -10z m-6460 -122 c119 -52 207 -103 192 -112
-5 -3 -7 -16 -5 -30 3 -15 -2 -31 -15 -44 -11 -11 -18 -22 -16 -25 3 -2 -13
-4 -35 -3 -22 0 -36 3 -30 6 5 3 -8 12 -29 20 -20 7 -51 24 -68 36 -17 13 -36
24 -42 24 -7 0 -12 3 -12 8 0 8 -35 28 -110 62 -94 43 -107 59 -51 61 14 0 46
6 71 13 52 15 87 11 150 -16z m5287 -90 c-2 -24 -4 -5 -4 42 0 47 2 66 4 43 2
-24 2 -62 0 -85z m1253 50 c0 -5 -4 -8 -10 -8 -5 0 -10 10 -10 23 0 18 2 19
10 7 5 -8 10 -18 10 -22z m5933 0 c27 -37 67 -138 67 -170 0 -48 -76 -121
-238 -232 -86 -58 -122 -69 -122 -38 -1 51 -9 152 -15 190 l-8 43 120 120
c134 134 154 143 196 87z m-248 -48 c-3 -5 -11 -10 -16 -10 -6 0 -7 5 -4 10 3
6 11 10 16 10 6 0 7 -4 4 -10z m-145 -22 c0 -19 -2 -20 -10 -8 -13 19 -13 30
0 30 6 0 10 -10 10 -22z m-40 -42 c0 -3 -4 -8 -10 -11 -5 -3 -10 -1 -10 4 0 6
5 11 10 11 6 0 10 -2 10 -4z m-14423 -128 c-3 -7 -5 -2 -5 12 0 14 2 19 5 13
2 -7 2 -19 0 -25z m15023 22 c0 -5 -5 -10 -11 -10 -5 0 -7 5 -4 10 3 6 8 10
11 10 2 0 4 -4 4 -10z m115 -12 c-11 -6 -30 -20 -42 -31 -29 -26 -30 -11 -1
20 12 13 31 23 42 23 21 -1 21 -1 1 -12z m-14465 -53 c-7 -9 -15 -13 -18 -10
-3 2 1 11 8 20 7 9 15 13 18 10 3 -2 -1 -11 -8 -20z m14336 -2 c33 -38 38 -72
18 -128 -28 -83 -100 -179 -247 -328 -180 -182 -251 -247 -437 -397 -190 -153
-238 -189 -266 -195 -28 -6 -28 -6 -9 9 28 22 38 31 58 56 10 12 24 19 32 16
9 -3 12 0 9 9 -3 8 4 20 15 27 12 7 21 21 21 31 0 24 26 33 47 16 15 -13 15
-12 4 9 -16 29 -7 39 16 21 15 -11 16 -11 6 1 -24 27 -31 17 143 203 30 32 54
60 54 63 0 2 36 41 80 87 90 91 143 178 122 199 -10 10 19 44 145 170 87 86
160 157 162 157 2 1 14 -11 27 -26z m-13484 -73 c6 -37 5 -46 -12 -57 -10 -7
-21 -28 -23 -46 -4 -31 -4 -31 -5 6 -1 21 -9 52 -18 68 -11 23 -12 34 -4 44 8
10 7 15 -2 19 -7 3 0 4 15 1 20 -4 27 -2 21 6 -4 7 -2 10 7 7 8 -3 17 -24 21
-48z m5845 -12 c-3 -8 -6 -5 -6 6 -1 11 2 17 5 13 3 -3 4 -12 1 -19z m28 -28
c3 -5 -1 -10 -10 -10 -9 0 -13 5 -10 10 3 6 8 10 10 10 2 0 7 -4 10 -10z
m6795 -50 c-11 -20 -10 -21 12 -9 23 12 23 12 -2 -16 -34 -37 -447 -408 -485
-435 -16 -12 -1 7 35 42 36 35 74 74 85 87 l20 24 -25 -13 c-14 -7 -54 -35
-89 -62 -67 -50 -84 -55 -58 -15 16 25 36 42 250 219 259 213 286 231 257 178z
m-12673 -27 c-3 -10 -5 -4 -5 12 0 17 2 24 5 18 2 -7 2 -21 0 -30z m7713 -3
c0 -5 -4 -10 -10 -10 -5 0 -10 5 -10 10 0 6 5 10 10 10 6 0 10 -4 10 -10z
m-7005 -95 c72 -29 159 -63 193 -76 55 -19 63 -25 58 -43 -2 -12 -16 -63 -30
-114 -20 -73 -26 -119 -27 -204 l-1 -110 -59 -63 c-70 -73 -148 -175 -224
-291 -60 -91 -215 -387 -215 -409 0 -8 -5 -15 -11 -15 -6 0 -9 7 -6 14 3 8 9
68 12 133 3 65 8 129 11 142 5 23 15 132 34 354 6 78 16 129 27 150 15 27 18
60 19 207 1 224 6 393 11 402 2 4 21 1 41 -8 20 -8 96 -39 167 -69z m4080 -84
c3 -6 -48 -54 -112 -107 -65 -54 -143 -121 -173 -149 -78 -73 -116 -98 -140
-90 -11 3 -20 10 -20 14 0 5 42 51 93 102 167 171 325 273 352 230z m-3122
-58 c9 -8 -122 -70 -167 -78 -51 -10 -54 11 -4 33 49 22 76 31 115 38 15 3 30
7 32 10 6 6 17 5 24 -3z m-8183 -35 c10 -6 7 -7 -10 -2 -14 3 -32 11 -40 16
-10 6 -7 7 10 2 14 -3 32 -11 40 -16z m90 -38 c8 -5 11 -10 5 -10 -5 0 -17 5
-25 10 -8 5 -10 10 -5 10 6 0 17 -5 25 -10z m2640 -10 c0 -5 -10 -10 -22 -10
-19 0 -20 2 -8 10 19 13 30 13 30 0z m-2600 -10 c0 -5 -2 -10 -4 -10 -3 0 -8
5 -11 10 -3 6 -1 10 4 10 6 0 11 -4 11 -10z m8374 -27 c-10 -40 -14 -41 -14
-5 0 18 5 32 10 32 6 0 8 -11 4 -27z m-327 -58 c6 -18 -23 -55 -44 -55 -7 0
-13 7 -13 15 0 8 4 15 9 15 5 0 11 9 14 20 6 24 25 26 34 5z m-7097 -35 c0 -5
-5 -10 -11 -10 -5 0 -7 5 -4 10 3 6 8 10 11 10 2 0 4 -4 4 -10z m-150 -33 c36
-11 100 -35 143 -54 43 -18 88 -33 100 -34 21 0 20 -1 -3 -10 -43 -17 -84 -7
-309 82 -40 16 -80 29 -87 29 -8 0 -14 5 -14 11 0 15 87 3 170 -24z m7610 22
c0 -6 -8 -8 -17 -5 -10 3 -28 -3 -40 -14 -21 -17 -23 -26 -23 -134 0 -71 -4
-116 -10 -116 -5 0 -10 18 -10 40 0 29 -4 40 -15 40 -12 0 -15 -16 -15 -80 0
-79 0 -80 25 -80 23 0 25 -4 25 -40 0 -29 4 -40 15 -40 12 0 15 -16 15 -80 0
-64 -3 -80 -15 -80 -12 0 -15 -16 -15 -80 0 -64 3 -80 15 -80 22 0 18 -16 -10
-38 -14 -11 -25 -25 -25 -31 0 -6 -5 -11 -11 -11 -6 0 -20 -11 -31 -25 -16
-21 -28 -25 -69 -25 -48 0 -49 0 -50 33 l-1 32 -10 -37 c-6 -21 -16 -38 -24
-38 -8 0 -14 -4 -14 -10 0 -14 23 -13 38 2 9 9 12 0 12 -40 0 -51 -1 -52 -30
-52 l-30 0 0 -80 0 -80 -50 0 c-33 0 -50 4 -50 13 0 8 -3 8 -9 -2 -6 -8 -6
-24 0 -38 6 -18 5 -23 -6 -23 -18 0 -21 60 -4 77 6 6 9 17 6 25 -5 15 -46 -67
-47 -94 0 -10 -4 -18 -9 -18 -5 0 -12 -12 -16 -27 -3 -16 -21 -59 -39 -98 -52
-111 -66 -144 -66 -163 0 -9 -7 -26 -15 -36 -8 -11 -15 -27 -15 -37 0 -9 -7
-30 -15 -45 -8 -16 -15 -37 -15 -46 0 -33 -12 -48 -40 -48 -31 0 -95 24 -105
40 -3 5 -16 10 -29 10 -12 0 -26 4 -31 9 -15 13 -105 61 -115 61 -6 0 -10 -7
-10 -15 0 -9 -10 -15 -22 -16 -17 -1 -18 -3 -6 -6 9 -2 25 0 35 5 16 9 18 6
15 -39 -3 -31 0 -49 7 -49 6 0 11 -18 11 -40 0 -29 4 -40 15 -40 19 0 19 -9
-2 -32 -22 -25 -33 -23 -33 7 0 16 -6 25 -15 25 -23 0 -21 -80 3 -81 16 -1 16
-2 0 -6 -28 -7 -21 -20 16 -33 19 -6 40 -18 46 -26 7 -7 21 -14 32 -14 18 0
67 -26 78 -42 6 -7 75 -27 128 -35 17 -3 32 -8 32 -11 0 -3 -14 -21 -32 -39
l-32 -33 32 0 c18 0 32 -4 32 -10 0 -6 -33 -10 -80 -10 l-80 0 0 -30 c0 -20
-5 -30 -15 -30 -12 0 -15 -16 -15 -80 0 -62 -3 -80 -14 -80 -8 0 -17 -6 -20
-12 -5 -10 -7 -10 -12 0 -3 6 -12 12 -20 12 -10 0 -14 -13 -14 -49 0 -41 -4
-53 -25 -69 -22 -17 -25 -28 -25 -81 l0 -61 -40 0 c-38 0 -40 -2 -40 -30 0
-29 -1 -30 -48 -30 -48 0 -49 1 -62 40 -7 22 -21 47 -32 56 -10 10 -18 31 -18
50 0 23 -9 41 -31 63 -37 37 -49 39 -49 7 0 -13 -7 -29 -15 -36 -12 -10 -15
-7 -21 17 -3 15 -10 42 -15 58 -8 27 -9 28 -5 3 1 -15 -1 -33 -5 -40 -7 -10
-9 -9 -9 5 0 9 -5 17 -10 17 -6 0 -22 25 -36 55 -15 30 -30 55 -35 55 -5 0 -9
16 -9 35 0 24 5 35 15 35 18 0 20 36 3 42 -27 9 -69 -8 -87 -35 -17 -27 -19
-27 -24 -7 -3 11 -11 19 -18 18 -23 -5 -40 91 -45 257 -3 98 -9 162 -16 166
-6 4 -8 12 -4 18 4 6 1 23 -7 38 -8 15 -20 57 -26 92 -12 60 -11 85 5 274 2
26 8 56 12 65 5 9 15 52 22 95 7 42 17 77 21 77 5 0 16 16 24 36 8 20 28 50
45 67 16 17 30 35 30 41 0 5 12 35 27 67 20 43 36 61 62 74 19 9 42 27 53 40
10 13 27 27 38 30 11 4 20 14 20 23 0 9 5 24 11 32 9 13 10 13 6 -1 -3 -9 -8
-42 -12 -75 l-8 -59 25 23 c13 12 29 22 36 22 6 0 16 8 21 18 6 9 11 13 11 8
0 -6 16 6 35 24 30 29 38 32 46 20 8 -11 9 -5 5 21 -10 59 16 98 30 44 3 -14
11 -25 16 -25 6 0 7 11 4 26 -6 21 -4 25 8 21 9 -4 16 -1 16 6 0 7 9 29 20 50
11 20 20 44 20 52 0 8 6 15 13 15 97 4 186 31 187 56 0 6 10 19 23 27 19 14
20 18 7 26 -13 9 -13 11 3 11 9 0 17 7 17 15 0 8 9 19 20 25 11 6 20 15 20 20
0 6 15 31 33 57 18 27 39 70 46 98 7 27 19 57 27 66 8 8 14 20 14 25 1 26 155
68 235 62 41 -2 52 -7 63 -28 l14 -25 -7 29 c-3 17 -13 35 -22 41 -14 10 -11
13 18 19 19 3 66 12 104 20 87 17 205 20 205 5z m-4856 -34 c33 -36 37 -95 18
-280 -19 -183 -21 -513 -3 -558 9 -23 8 -31 -3 -43 -20 -20 -23 -18 -35 19
-13 37 -66 97 -87 97 -7 0 -14 5 -14 10 0 6 -33 10 -80 10 -47 0 -80 -4 -80
-10 0 -5 -18 -10 -40 -10 -29 0 -40 -4 -40 -15 0 -10 -10 -15 -29 -15 -17 0
-32 -4 -35 -8 -3 -5 -64 -12 -136 -16 -85 -4 -141 -11 -160 -21 -16 -8 -49
-15 -75 -15 -37 0 -45 -3 -45 -18 0 -19 -62 -48 -79 -37 -11 6 -81 -25 -81
-37 0 -4 -12 -8 -27 -8 -14 0 -34 -6 -42 -14 -17 -15 -118 -39 -163 -39 -29 0
-37 -12 -15 -20 6 -3 0 -6 -15 -6 -16 -1 -28 4 -28 9 0 6 -7 10 -15 10 -8 0
-29 6 -47 14 -18 8 -64 27 -103 42 -90 35 -102 46 -87 76 6 13 18 55 27 93 31
128 95 295 138 358 10 14 9 20 -3 28 -13 10 -13 10 0 6 10 -3 34 13 60 40 72
72 188 137 285 159 17 4 35 10 40 14 6 4 46 17 90 30 44 12 91 26 105 31 39
13 228 57 415 95 94 19 188 38 210 43 22 5 66 9 98 10 50 1 61 -2 81 -24z
m4499 -12 c-7 -2 -19 -2 -25 0 -7 3 -2 5 12 5 14 0 19 -2 13 -5z m828 -48 l34
-14 -45 3 c-25 2 -36 2 -24 -1 20 -4 22 -13 28 -137 4 -73 4 -163 0 -199 -5
-47 -3 -67 5 -67 6 0 11 -17 11 -40 0 -22 -4 -40 -10 -40 -5 0 -10 -18 -10
-40 0 -22 -4 -40 -10 -40 -5 0 -10 -21 -10 -46 0 -42 -2 -45 -22 -39 -13 4
-18 3 -11 -2 6 -4 14 -25 18 -46 4 -20 12 -37 17 -37 6 0 8 12 5 30 -4 16 -2
32 3 35 5 3 12 -26 16 -65 3 -38 11 -70 15 -70 5 0 9 -20 9 -44 0 -44 13 -68
23 -44 3 7 6 4 6 -7 0 -11 -3 -26 -8 -33 -6 -10 -11 -5 -21 17 -7 17 -16 31
-21 31 -5 0 -9 10 -9 22 0 19 -56 156 -70 168 -3 3 -23 43 -46 90 -35 73 -39
90 -32 120 18 75 37 270 38 377 0 96 3 113 18 122 25 15 64 13 103 -4z m7910
-20 c58 -18 137 -41 176 -50 39 -9 78 -21 87 -28 18 -14 36 -187 19 -187 -5 0
-25 16 -44 36 -75 79 -170 125 -256 125 -51 0 -53 2 -53 27 0 15 -9 46 -20 70
-10 23 -18 42 -16 42 1 0 49 -16 107 -35z m-9026 -35 c3 -6 -1 -13 -10 -16
-19 -8 -30 0 -20 15 8 14 22 14 30 1z m11569 -61 c25 -51 28 -62 15 -70 -7 -5
-20 -9 -26 -9 -7 0 -31 -18 -53 -40 -30 -30 -44 -57 -61 -112 -12 -40 -23 -75
-25 -77 -2 -2 -25 10 -51 27 -26 17 -69 41 -95 53 -27 13 -48 28 -48 33 0 6
22 27 47 46 26 19 94 74 151 123 57 48 107 87 111 86 3 0 19 -27 35 -60z
m-17114 31 c0 -5 -7 -10 -16 -10 -8 0 -12 5 -9 10 3 6 10 10 16 10 5 0 9 -4 9
-10z m5382 -222 c-9 -9 -12 -7 -12 12 0 19 3 21 12 12 9 -9 9 -15 0 -24z
m-5412 8 c0 -16 -18 -31 -27 -22 -8 8 5 36 17 36 5 0 10 -6 10 -14z m12207
-28 c-3 -8 -6 -5 -6 6 -1 11 2 17 5 13 3 -3 4 -12 1 -19z m5163 7 c-7 -8 -16
-15 -21 -15 -5 0 -9 7 -9 15 0 9 9 15 21 15 18 0 19 -2 9 -15z m-5143 -52 c-3
-10 -5 -4 -5 12 0 17 2 24 5 18 2 -7 2 -21 0 -30z m-7017 -53 c0 -5 -4 -10
-10 -10 -5 0 -10 5 -10 10 0 6 5 10 10 10 6 0 10 -4 10 -10z m51 -8 c-7 -2
-18 1 -23 6 -8 8 -4 9 13 5 13 -4 18 -8 10 -11z m10149 -76 c0 -2 -48 -99
-106 -215 l-107 -211 -38 62 c-21 35 -56 82 -79 106 -33 34 -48 42 -77 42 -34
0 -35 1 -29 28 4 15 10 62 13 104 l6 78 196 3 c108 1 202 3 209 5 6 1 12 0 12
-2z m-4950 -106 c0 -22 -4 -40 -10 -40 -5 0 -10 18 -10 40 0 22 5 40 10 40 6
0 10 -18 10 -40z m-3375 -9 l40 -8 -45 -12 c-122 -33 -228 -61 -234 -61 -3 0
-6 18 -6 39 0 37 2 40 33 44 57 7 171 6 212 -2z m-9665 -21 c0 -5 -22 -10 -50
-10 -27 0 -50 5 -50 10 0 6 23 10 50 10 28 0 50 -4 50 -10z m13040 -130 c0
-22 -4 -40 -10 -40 -5 0 -10 18 -10 40 0 22 5 40 10 40 6 0 10 -18 10 -40z
m1930 -120 c0 -16 -4 -30 -10 -30 -5 0 -10 14 -10 30 0 17 5 30 10 30 6 0 10
-13 10 -30z m-2110 -130 l0 -50 -40 0 -40 0 0 50 0 50 40 0 40 0 0 -50z
m-11847 -37 c-7 -2 -19 -2 -25 0 -7 3 -2 5 12 5 14 0 19 -2 13 -5z m256 -22
c8 -5 -5 -7 -35 -4 -27 3 -51 7 -53 9 -9 8 75 3 88 -5z m17986 -131 c3 -6 -1
-7 -9 -4 -18 7 -21 14 -7 14 6 0 13 -4 16 -10z m-10965 -25 c0 -2 -5 -16 -12
-30 -16 -35 -29 -31 -15 5 10 25 27 42 27 25z m3748 -1 c-11 -10 -271 -84
-277 -78 -11 10 44 44 104 63 54 18 187 29 173 15z m3069 -286 c-3 -8 -6 -5
-6 6 -1 11 2 17 5 13 3 -3 4 -12 1 -19z m-7174 -65 c-7 -2 -19 -2 -25 0 -7 3
-2 5 12 5 14 0 19 -2 13 -5z m7040 -20 c-7 -2 -19 -2 -25 0 -7 3 -2 5 12 5 14
0 19 -2 13 -5z m-4613 -247 c0 -2 -44 -39 -97 -82 -54 -43 -132 -108 -173
-144 -115 -100 -190 -149 -190 -122 0 15 180 200 245 252 35 28 90 62 122 75
53 22 93 31 93 21z m1607 -78 c21 -29 78 -100 127 -158 335 -393 705 -683
1169 -915 l77 -39 0 -46 c0 -25 3 -83 7 -129 4 -55 3 -82 -4 -78 -18 11 -448
35 -578 32 -89 -3 -148 1 -185 10 -31 8 -100 14 -155 14 -287 -3 -599 8 -603
21 -2 5 -16 10 -31 10 -15 0 -33 6 -40 13 -9 9 -72 12 -239 13 -282 1 -551 18
-617 38 -29 9 -88 16 -142 16 -50 0 -104 4 -118 10 -18 7 -40 6 -72 -1 -31 -8
-47 -9 -52 -2 -11 19 -84 44 -146 50 -65 7 -92 22 -72 42 6 6 8 11 5 11 -4 0
-14 -8 -23 -17 -14 -13 -21 -14 -36 -5 -16 10 -22 9 -39 -8 -11 -11 -20 -17
-20 -14 0 6 40 65 50 74 3 3 38 48 78 100 39 52 112 147 162 210 49 63 121
161 159 217 64 93 76 120 95 204 5 24 9 26 122 37 296 31 632 131 922 273 75
37 142 68 149 68 6 1 29 -23 50 -51z m-3717 -54 c0 -2 -7 -4 -15 -4 -8 0 -15
4 -15 10 0 5 7 7 15 4 8 -4 15 -8 15 -10z m-4575 -50 c10 -15 22 -23 31 -20
16 6 15 -3 -16 -114 -39 -144 -45 -160 -50 -160 -3 0 -5 33 -5 74 0 70 -2 76
-29 99 -15 14 -51 35 -80 47 -28 12 -68 30 -89 39 l-37 16 87 -3 c81 -3 91 -1
123 22 44 31 44 31 65 0z m3449 -190 c37 -144 176 -468 238 -556 20 -28 13
-38 -11 -15 -10 10 -12 7 -8 -13 2 -14 2 -19 0 -12 -5 13 -83 17 -83 4 0 -5
-106 -13 -236 -18 -186 -8 -237 -13 -245 -25 -5 -8 -9 -9 -9 -3 0 6 -11 10
-25 9 -14 -2 -25 -2 -25 -1 0 1 11 24 24 52 13 27 29 66 37 87 8 22 28 55 45
75 17 21 56 75 87 123 51 78 70 116 153 311 31 75 34 74 58 -18z m206 50 c0
-3 -7 -12 -15 -20 -8 -9 -15 -31 -15 -50 0 -35 -13 -46 -24 -18 -3 9 -6 33 -6
55 0 37 2 39 30 39 17 0 30 -3 30 -6z m-1802 -594 c91 -48 103 -57 126 -92 17
-26 17 -27 -3 -37 -31 -17 -105 -13 -166 10 -57 21 -115 69 -115 95 0 19 48
64 67 64 8 0 49 -18 91 -40z m572 -110 c10 -5 24 -27 30 -47 7 -21 19 -46 28
-55 14 -16 13 -18 -1 -18 -38 0 -120 49 -138 83 -21 37 34 62 81 37z m610 0
c0 -5 -5 -10 -11 -10 -5 0 -7 5 -4 10 3 6 8 10 11 10 2 0 4 -4 4 -10z m-1215
-62 l129 -53 -59 -10 c-73 -13 -140 2 -170 38 -68 82 -74 92 -49 84 10 -3 77
-30 149 -59z m-1685 8 c0 -3 -4 -8 -10 -11 -5 -3 -10 -1 -10 4 0 6 5 11 10 11
6 0 10 -2 10 -4z m2339 -138 c48 -29 47 -28 31 -38 -10 -6 -20 -4 -31 6 -10 9
-44 24 -76 34 l-58 19 49 0 c33 1 60 -6 85 -21z m4061 -8 c0 -5 -5 -10 -11
-10 -5 0 -7 5 -4 10 3 6 8 10 11 10 2 0 4 -4 4 -10z m250 -40 c0 -5 -10 -10
-22 -10 -19 0 -20 2 -8 10 19 13 30 13 30 0z m-5075 -188 c-3 -3 -11 0 -18 7
-9 10 -8 11 6 5 10 -3 15 -9 12 -12z m56 -17 c19 -8 27 -14 19 -14 -14 0 -72
28 -59 29 4 0 22 -7 40 -15z m11943 -76 l19 -31 -62 -55 c-87 -78 -131 -177
-131 -295 0 -34 -2 -39 -12 -29 -9 8 -13 45 -12 114 0 88 4 110 26 159 25 54
123 168 144 168 5 0 18 -14 28 -31z m670 -112 c38 -47 66 -113 66 -156 0 -23
-2 -21 -21 16 -13 26 -31 46 -52 54 -43 18 -97 67 -97 90 0 19 25 38 52 39 9
0 33 -20 52 -43z m-142 -65 c4 10 8 11 20 1 8 -7 18 -10 21 -6 4 3 7 1 7 -5 0
-7 -8 -12 -17 -12 -16 -1 -15 -2 2 -12 11 -7 22 -12 25 -11 14 1 27 -38 29
-86 1 -29 3 -57 6 -61 14 -23 -61 -162 -95 -174 -8 -3 -21 -9 -27 -12 -8 -3
-13 1 -13 11 0 9 -11 27 -25 41 -31 31 -31 35 3 92 30 53 51 120 52 171 0 28
-3 32 -17 26 -35 -15 -63 -17 -63 -6 0 6 7 11 15 11 11 0 15 11 15 37 l0 37
29 -28 c20 -20 30 -24 33 -14z m-1027 14 c30 -11 36 -16 23 -21 -9 -4 -27 -1
-39 6 -17 9 -24 9 -27 0 -2 -6 -8 -11 -13 -11 -5 0 -4 9 3 20 7 11 13 20 13
20 0 0 18 -7 40 -14z m1292 -253 c8 -169 -6 -198 -130 -270 -42 -25 -77 -30
-77 -12 0 6 27 40 59 75 32 36 71 89 85 119 29 63 49 170 41 223 -5 32 -4 34
5 13 6 -13 13 -80 17 -148z m-926 -124 c22 -26 39 -50 39 -53 0 -18 -52 3
-100 41 -2 2 -5 30 -6 61 l-2 56 16 -29 c8 -17 32 -51 53 -76z m976 -33 c-13
-81 -85 -186 -171 -248 -65 -47 -63 -31 4 29 69 63 133 154 152 215 14 47 22
50 15 4z m-1044 -131 l22 -30 -25 16 c-29 19 -90 95 -90 112 1 12 53 -43 93
-98z m1044 -37 c-3 -8 -6 -5 -6 6 -1 11 2 17 5 13 3 -3 4 -12 1 -19z"/>
<path d="M10286 6984 c-9 -22 -8 -24 9 -24 8 0 15 9 15 20 0 24 -15 27 -24 4z"/>
<path d="M12067 6373 c-2 -5 -1 -19 4 -33 7 -23 7 -23 8 8 1 31 -3 40 -12 25z"/>
<path d="M12032 6135 c0 -16 2 -22 5 -12 2 9 2 23 0 30 -3 6 -5 -1 -5 -18z"/>
<path d="M12041 6064 c0 -11 3 -14 6 -6 3 7 2 16 -1 19 -3 4 -6 -2 -5 -13z"/>
<path d="M12071 6064 c0 -11 3 -14 6 -6 3 7 2 16 -1 19 -3 4 -6 -2 -5 -13z"/>
<path d="M12050 5991 c0 -6 5 -13 10 -16 6 -3 10 1 10 9 0 9 -4 16 -10 16 -5
0 -10 -4 -10 -9z"/>
<path d="M12098 5800 c2 -22 9 -40 14 -40 6 0 8 10 4 23 -3 12 -6 30 -6 40 0
9 -3 17 -8 17 -4 0 -6 -18 -4 -40z"/>
<path d="M12130 5812 c0 -16 6 -36 13 -45 10 -15 12 -11 9 28 -4 49 -22 63
-22 17z"/>
<path d="M11211 5725 c-1 -24 15 -52 24 -43 4 3 0 19 -9 35 -13 23 -15 24 -15
8z"/>
<path d="M12100 5696 c0 -9 5 -16 10 -16 6 0 10 4 10 9 0 6 -4 13 -10 16 -5 3
-10 -1 -10 -9z"/>
<path d="M12071 5664 c0 -11 3 -14 6 -6 3 7 2 16 -1 19 -3 4 -6 -2 -5 -13z"/>
<path d="M12050 5630 c0 -5 5 -10 10 -10 6 0 10 5 10 10 0 6 -4 10 -10 10 -5
0 -10 -4 -10 -10z"/>
<path d="M11145 5590 c3 -5 10 -10 16 -10 5 0 9 5 9 10 0 6 -7 10 -16 10 -8 0
-12 -4 -9 -10z"/>
<path d="M12022 5576 c-14 -30 -9 -47 9 -29 6 6 9 21 7 34 -3 23 -3 23 -16 -5z"/>
<path d="M11147 5534 c-3 -3 1 -13 9 -21 8 -9 18 -12 21 -9 4 4 0 13 -8 21 -8
9 -18 13 -22 9z"/>
<path d="M11990 5525 c0 -8 -6 -24 -12 -35 -11 -17 -10 -22 1 -29 9 -6 12 -20
9 -40 -3 -18 -1 -34 4 -37 4 -3 7 31 6 76 -1 44 -3 80 -5 80 -2 0 -3 -7 -3
-15z"/>
<path d="M11946 5428 c-4 -16 -12 -28 -17 -28 -5 0 -9 -4 -9 -10 0 -5 7 -10
15 -10 8 0 15 -4 15 -10 0 -5 7 -10 15 -10 8 0 15 5 15 10 0 6 -4 10 -9 10 -6
0 -11 17 -13 38 -4 36 -4 36 -12 10z"/>
<path d="M11286 4844 c-4 -9 -4 -19 -1 -22 3 -3 5 0 5 6 0 7 9 12 21 12 11 0
17 5 14 10 -10 16 -32 12 -39 -6z"/>
<path d="M10938 4163 c7 -3 16 -2 19 1 4 3 -2 6 -13 5 -11 0 -14 -3 -6 -6z"/>
<path d="M11032 4060 c0 -14 2 -19 5 -12 2 6 2 18 0 25 -3 6 -5 1 -5 -13z"/>
<path d="M7470 5541 c0 -12 5 -21 10 -21 6 0 10 6 10 14 0 8 -4 18 -10 21 -5
3 -10 -3 -10 -14z"/>
<path d="M12791 5564 c0 -11 3 -14 6 -6 3 7 2 16 -1 19 -3 4 -6 -2 -5 -13z"/>
<path d="M22610 10956 c0 -2 7 -9 15 -16 12 -10 15 -10 15 4 0 9 -7 16 -15 16
-8 0 -15 -2 -15 -4z"/>
<path d="M20395 10919 c-4 -6 -5 -12 -2 -15 2 -3 7 2 10 11 7 17 1 20 -8 4z"/>
<path d="M12266 10837 c3 -10 9 -15 12 -12 3 3 0 11 -7 18 -10 9 -11 8 -5 -6z"/>
<path d="M19675 10420 c-3 -5 -2 -10 4 -10 5 0 13 5 16 10 3 6 2 10 -4 10 -5
0 -13 -4 -16 -10z"/>
<path d="M23200 10380 c0 -45 4 -53 43 -90 34 -32 39 -42 27 -49 -8 -6 -11
-13 -7 -18 5 -4 12 -1 17 7 8 12 18 7 54 -30 37 -37 45 -52 46 -82 0 -27 4
-38 15 -38 20 0 21 -83 0 -100 -12 -10 -12 -15 2 -36 9 -15 11 -24 4 -24 -8 0
-7 -6 1 -20 7 -11 17 -20 22 -20 4 0 3 6 -3 14 -9 10 -8 21 1 42 l12 29 4 -34
c2 -21 13 -42 28 -53 28 -23 30 -31 8 -52 -10 -11 -12 -21 -6 -32 8 -15 10
-15 15 1 9 21 27 10 27 -16 0 -10 5 -19 10 -19 6 0 10 -18 10 -40 0 -29 4 -40
15 -40 16 0 20 -16 6 -24 -5 -3 -7 -15 -4 -26 4 -15 9 -18 18 -10 9 8 14 5 18
-12 8 -27 -1 -38 -13 -18 -18 29 -10 -8 14 -61 13 -30 33 -64 45 -76 12 -12
18 -29 15 -37 -3 -9 -3 -24 1 -33 9 -20 11 -25 24 -73 16 -56 47 -140 73 -200
14 -30 33 -75 43 -100 10 -25 25 -53 33 -62 13 -15 15 -15 32 2 23 23 50 74
50 95 0 8 4 23 9 33 15 29 34 115 32 146 -1 15 -6 37 -12 47 -6 13 -6 19 0 19
48 0 -16 274 -73 313 -8 5 -7 10 3 16 7 5 10 14 6 21 -6 9 -9 9 -16 -1 -6 -9
-9 1 -9 29 0 23 -4 42 -9 42 -5 0 -13 14 -16 32 -7 31 -7 31 -20 9 -12 -23
-12 -23 -17 -3 -3 11 -1 25 4 30 6 6 7 19 3 29 -7 17 -8 17 -16 -2 -7 -15 -7
-11 -3 12 5 28 3 32 -11 27 -26 -10 -53 25 -65 85 -12 62 -35 116 -51 127 -8
4 -9 -3 -4 -25 4 -21 3 -31 -5 -31 -7 0 -11 16 -9 43 3 52 -9 96 -21 76 -7
-10 -27 5 -78 57 -38 38 -71 76 -75 84 -4 12 -6 11 -6 -2 -1 -27 -15 -22 -55
22 -20 22 -45 40 -56 40 -17 0 -20 7 -20 40 0 29 -4 40 -15 40 -8 0 -15 7 -15
15 0 11 -11 15 -40 15 l-40 0 0 -50z m627 -696 c-3 -3 -12 -4 -19 -1 -8 3 -5
6 6 6 11 1 17 -2 13 -5z m-230 -136 c-3 -8 -6 -5 -6 6 -1 11 2 17 5 13 3 -3 4
-12 1 -19z m160 -400 c-3 -8 -6 -5 -6 6 -1 11 2 17 5 13 3 -3 4 -12 1 -19z"/>
<path d="M12391 10384 c0 -11 3 -14 6 -6 3 7 2 16 -1 19 -3 4 -6 -2 -5 -13z"/>
<path d="M12471 10340 c0 -8 4 -22 9 -30 12 -18 12 -2 0 25 -6 13 -9 15 -9 5z"/>
<path d="M12502 10285 c0 -11 4 -31 8 -45 l8 -25 0 25 c0 14 -3 34 -8 45 l-9
20 1 -20z"/>
<path d="M23480 10266 c0 -8 5 -18 10 -21 6 -3 10 1 10 9 0 8 -4 18 -10 21 -5
3 -10 -1 -10 -9z"/>
<path d="M23165 10240 c3 -5 11 -10 16 -10 6 0 7 5 4 10 -3 6 -11 10 -16 10
-6 0 -7 -4 -4 -10z"/>
<path d="M23540 10190 c0 -5 5 -10 10 -10 6 0 10 5 10 10 0 6 -4 10 -10 10 -5
0 -10 -4 -10 -10z"/>
<path d="M19396 10085 c-9 -26 -7 -32 5 -12 6 10 9 21 6 23 -2 3 -7 -2 -11
-11z"/>
<path d="M19357 10043 c-4 -3 -7 -11 -7 -17 0 -6 5 -5 12 2 6 6 9 14 7 17 -3
3 -9 2 -12 -2z"/>
<path d="M19331 9984 c0 -11 3 -14 6 -6 3 7 2 16 -1 19 -3 4 -6 -2 -5 -13z"/>
<path d="M23690 9960 c0 -5 5 -10 11 -10 5 0 7 5 4 10 -3 6 -8 10 -11 10 -2 0
-4 -4 -4 -10z"/>
<path d="M23713 9924 c3 -11 8 -29 12 -41 3 -13 13 -23 21 -23 13 0 13 2 0 16
-9 8 -16 24 -16 34 0 10 -5 22 -11 26 -7 4 -9 0 -6 -12z"/>
<path d="M19311 9904 c0 -11 3 -14 6 -6 3 7 2 16 -1 19 -3 4 -6 -2 -5 -13z"/>
<path d="M16168 9783 c7 -3 16 -2 19 1 4 3 -2 6 -13 5 -11 0 -14 -3 -6 -6z"/>
<path d="M15880 9639 c0 -5 5 -7 10 -4 6 3 10 8 10 11 0 2 -4 4 -10 4 -5 0
-10 -5 -10 -11z"/>
<path d="M22903 9304 c-15 -16 -16 -24 -4 -24 8 0 24 30 19 35 -2 2 -9 -3 -15
-11z"/>
<path d="M22963 9205 c0 -22 2 -30 4 -17 2 12 2 30 0 40 -3 9 -5 -1 -4 -23z"/>
<path d="M15355 9200 c-3 -5 -1 -10 4 -10 6 0 11 5 11 10 0 6 -2 10 -4 10 -3
0 -8 -4 -11 -10z"/>
<path d="M18701 9184 c0 -11 3 -14 6 -6 3 7 2 16 -1 19 -3 4 -6 -2 -5 -13z"/>
<path d="M17063 9123 c11 -3 17 -14 17 -33 0 -22 5 -29 23 -32 17 -2 22 -9 21
-31 -1 -16 0 -19 3 -7 2 11 9 20 15 20 7 0 -2 12 -19 28 -16 15 -33 35 -36 45
-4 9 -14 16 -24 16 -17 -1 -17 -2 0 -6z"/>
<path d="M17041 9094 c0 -11 3 -14 6 -6 3 7 2 16 -1 19 -3 4 -6 -2 -5 -13z"/>
<path d="M17159 8992 c16 -30 5 -42 -14 -16 -11 15 -14 16 -15 3 0 -20 66 -84
74 -70 11 17 -4 58 -31 83 l-26 23 12 -23z"/>
<path d="M17206 8884 c-13 -35 2 -99 20 -81 4 3 1 13 -5 21 -7 8 -11 23 -9 33
3 13 9 7 22 -22 22 -49 32 -33 11 18 -17 42 -31 53 -39 31z"/>
<path d="M17283 8692 c-1 -31 1 -41 8 -31 11 17 11 50 1 66 -4 6 -8 -10 -9
-35z"/>
<path d="M17310 8633 c0 -18 2 -33 4 -33 9 0 13 39 5 51 -6 10 -9 4 -9 -18z"/>
<path d="M17265 8620 c10 -11 20 -20 22 -20 1 0 3 9 3 20 0 14 -7 20 -22 20
-20 0 -21 -1 -3 -20z"/>
<path d="M17290 8575 c0 -8 5 -15 10 -15 6 0 10 7 10 15 0 8 -4 15 -10 15 -5
0 -10 -7 -10 -15z"/>
<path d="M19032 8505 c0 -16 2 -22 5 -12 2 9 2 23 0 30 -3 6 -5 -1 -5 -18z"/>
<path d="M20072 8460 c0 -14 2 -19 5 -12 2 6 2 18 0 25 -3 6 -5 1 -5 -13z"/>
<path d="M17370 8400 c0 -14 7 -47 15 -75 l15 -50 -6 60 c-6 64 -23 111 -24
65z"/>
<path d="M17377 8233 c-4 -3 -7 -22 -6 -42 l1 -36 9 39 c9 39 8 52 -4 39z"/>
<path d="M17412 8185 c0 -16 2 -22 5 -12 2 9 2 23 0 30 -3 6 -5 -1 -5 -18z"/>
<path d="M17423 8103 c-18 -7 -16 -23 2 -23 8 0 15 7 15 15 0 8 -1 15 -2 14
-2 0 -9 -3 -15 -6z"/>
<path d="M17441 7984 c0 -27 4 -71 9 -99 6 -36 7 -23 3 45 -6 101 -14 136 -12
54z"/>
<path d="M19655 7900 c-3 -5 1 -10 9 -10 9 0 16 5 16 10 0 6 -4 10 -9 10 -6 0
-13 -4 -16 -10z"/>
<path d="M23920 7847 c0 -8 11 -19 25 -25 23 -11 24 -10 13 13 -12 26 -38 34
-38 12z"/>
<path d="M16472 7790 c0 -19 2 -27 5 -17 2 9 2 25 0 35 -3 9 -5 1 -5 -18z"/>
<path d="M17455 7801 c-3 -5 -1 -12 5 -16 5 -3 10 1 10 9 0 18 -6 21 -15 7z"/>
<path d="M17440 7690 c0 -5 5 -10 11 -10 5 0 7 5 4 10 -3 6 -8 10 -11 10 -2 0
-4 -4 -4 -10z"/>
<path d="M17530 7688 c0 -18 18 -34 28 -24 3 4 -2 14 -11 23 -16 16 -17 16
-17 1z"/>
<path d="M17521 7634 c0 -11 3 -14 6 -6 3 7 2 16 -1 19 -3 4 -6 -2 -5 -13z"/>
<path d="M17560 7636 c0 -9 5 -16 10 -16 6 0 10 4 10 9 0 6 -4 13 -10 16 -5 3
-10 -1 -10 -9z"/>
<path d="M19192 7520 c0 -19 2 -27 5 -17 2 9 2 25 0 35 -3 9 -5 1 -5 -18z"/>
<path d="M15780 7470 c0 -5 5 -10 11 -10 5 0 7 5 4 10 -3 6 -8 10 -11 10 -2 0
-4 -4 -4 -10z"/>
<path d="M23530 7440 c-9 -6 -10 -10 -3 -10 6 0 15 5 18 10 8 12 4 12 -15 0z"/>
<path d="M15990 7234 c0 -6 7 -17 15 -24 8 -7 15 -25 15 -40 0 -22 7 -31 38
-45 20 -10 45 -27 54 -39 9 -11 19 -19 21 -16 8 7 -24 42 -60 68 -18 13 -33
29 -33 35 -1 16 -50 75 -50 61z"/>
<path d="M16081 7075 c-1 -13 19 -35 31 -35 4 0 8 5 8 10 0 6 -6 10 -14 10 -8
0 -17 6 -19 13 -3 6 -6 7 -6 2z"/>
<path d="M15342 6820 c0 -14 2 -19 5 -12 2 6 2 18 0 25 -3 6 -5 1 -5 -13z"/>
<path d="M15818 6713 c7 -3 16 -2 19 1 4 3 -2 6 -13 5 -11 0 -14 -3 -6 -6z"/>
<path d="M15863 6704 c-7 -20 18 -38 29 -21 13 20 9 37 -7 37 -9 0 -18 -7 -22
-16z"/>
<path d="M4065 6610 c3 -5 8 -10 11 -10 2 0 4 5 4 10 0 6 -5 10 -11 10 -5 0
-7 -4 -4 -10z"/>
<path d="M2818 6143 c-29 -7 -22 -31 7 -25 13 2 33 1 42 -3 16 -6 17 -8 2 -18
-13 -10 7 -12 95 -14 109 -2 110 -1 61 12 -53 14 -150 41 -175 48 -8 3 -23 3
-32 0z"/>
<path d="M2765 6110 c-3 -5 -2 -10 4 -10 5 0 13 5 16 10 3 6 2 10 -4 10 -5 0
-13 -4 -16 -10z"/>
<path d="M2800 6090 c0 -6 7 -10 15 -10 8 0 15 2 15 4 0 2 -7 6 -15 10 -8 3
-15 1 -15 -4z"/>
<path d="M16588 6083 c7 -3 16 -2 19 1 4 3 -2 6 -13 5 -11 0 -14 -3 -6 -6z"/>
<path d="M3255 5590 c3 -5 10 -10 16 -10 5 0 9 5 9 10 0 6 -7 10 -16 10 -8 0
-12 -4 -9 -10z"/>
<path d="M3128 5513 c7 -3 16 -2 19 1 4 3 -2 6 -13 5 -11 0 -14 -3 -6 -6z"/>
<path d="M3195 5510 c-3 -5 -1 -10 4 -10 6 0 11 5 11 10 0 6 -2 10 -4 10 -3 0
-8 -4 -11 -10z"/>
<path d="M3448 5513 c6 -2 18 -2 25 0 6 3 1 5 -13 5 -14 0 -19 -2 -12 -5z"/>
<path d="M3255 5500 c-3 -5 1 -10 9 -10 9 0 16 5 16 10 0 6 -4 10 -9 10 -6 0
-13 -4 -16 -10z"/>
<path d="M3148 5483 c7 -3 16 -2 19 1 4 3 -2 6 -13 5 -11 0 -14 -3 -6 -6z"/>
<path d="M3196 5472 c-6 -9 75 -25 83 -16 7 7 -2 11 -41 18 -20 4 -39 3 -42
-2z"/>
<path d="M3355 5434 c17 -3 57 -11 91 -19 71 -18 74 -18 74 -6 0 10 -56 20
-140 25 -30 2 -41 2 -25 0z"/>
<path d="M3568 5403 c6 -2 18 -2 25 0 6 3 1 5 -13 5 -14 0 -19 -2 -12 -5z"/>
<path d="M3688 5383 c6 -2 18 -2 25 0 6 3 1 5 -13 5 -14 0 -19 -2 -12 -5z"/>
<path d="M3848 5353 c6 -2 18 -2 25 0 6 3 1 5 -13 5 -14 0 -19 -2 -12 -5z"/>
<path d="M3980 5351 c-24 -7 -24 -7 -3 -13 14 -4 24 -1 27 8 3 8 4 14 3 13 -1
-1 -13 -4 -27 -8z"/>
<path d="M4076 5342 c-3 -5 8 -6 25 -4 16 2 29 6 29 8 0 8 -49 4 -54 -4z"/>
<path d="M4138 5313 c7 -3 16 -2 19 1 4 3 -2 6 -13 5 -11 0 -14 -3 -6 -6z"/>
<path d="M4211 5306 c10 -9 109 -14 109 -6 0 6 -25 10 -57 10 -31 0 -54 -2
-52 -4z"/>
<path d="M19246 5185 c4 -8 8 -15 10 -15 2 0 4 7 4 15 0 8 -4 15 -10 15 -5 0
-7 -7 -4 -15z"/>
<path d="M2772 4855 c0 -16 2 -22 5 -12 2 9 2 23 0 30 -3 6 -5 -1 -5 -18z"/>
<path d="M4248 4723 c7 -3 16 -2 19 1 4 3 -2 6 -13 5 -11 0 -14 -3 -6 -6z"/>
<path d="M4400 4709 c0 -5 5 -7 10 -4 6 3 10 8 10 11 0 2 -4 4 -10 4 -5 0 -10
-5 -10 -11z"/>
<path d="M3660 4495 c-10 -12 -10 -15 4 -15 9 0 16 7 16 15 0 8 -2 15 -4 15
-2 0 -9 -7 -16 -15z"/>
<path d="M19679 4298 c0 -13 -3 -17 -6 -10 -2 6 -11 12 -20 12 -8 0 -12 -5 -9
-12 3 -7 9 -21 12 -30 12 -35 34 -20 34 22 0 42 -9 57 -11 18z"/>
<path d="M19686 4095 c-3 -8 -14 -15 -25 -15 -28 0 -94 -86 -120 -155 -12 -31
-39 -80 -60 -109 -21 -28 -41 -61 -44 -72 -3 -14 -5 -12 -6 8 -1 38 -21 46
-21 9 0 -16 5 -33 10 -36 12 -7 14 -45 2 -45 -16 0 -31 -56 -25 -95 5 -31 8
-35 13 -20 4 11 5 35 2 53 -3 24 -1 32 11 32 9 0 19 16 25 43 11 42 27 68 70
112 12 13 22 27 22 31 0 3 18 28 39 56 22 27 49 69 61 93 12 25 26 45 31 45 5
0 9 9 9 20 0 11 7 23 15 26 8 4 15 12 15 20 0 19 -16 18 -24 -1z"/>
<path d="M19690 3850 c0 -5 5 -10 11 -10 5 0 7 5 4 10 -3 6 -8 10 -11 10 -2 0
-4 -4 -4 -10z"/>
<path d="M19348 3843 c7 -3 16 -2 19 1 4 3 -2 6 -13 5 -11 0 -14 -3 -6 -6z"/>
<path d="M19362 3780 c0 -14 2 -19 5 -12 2 6 2 18 0 25 -3 6 -5 1 -5 -13z"/>
<path d="M19380 3690 c0 -5 5 -10 11 -10 5 0 7 5 4 10 -3 6 -8 10 -11 10 -2 0
-4 -4 -4 -10z"/>
<path d="M18960 3504 c0 -8 5 -12 10 -9 6 3 10 10 10 16 0 5 -4 9 -10 9 -5 0
-10 -7 -10 -16z"/>
<path d="M22160 2385 c0 -11 11 -15 40 -15 22 0 40 -4 40 -10 0 -13 37 -13 45
0 3 5 -6 12 -20 16 -14 3 -25 10 -25 15 0 5 -18 9 -40 9 -29 0 -40 -4 -40 -15z"/>
<path d="M21821 2354 c0 -11 3 -14 6 -6 3 7 2 16 -1 19 -3 4 -6 -2 -5 -13z"/>
<path d="M22000 2285 c0 -12 13 -15 59 -15 59 0 86 12 55 24 -9 3 -38 6 -65 6
-37 0 -49 -4 -49 -15z"/>
</g>
</svg>
