<?xml version="1.0" standalone="no"?>
<!DOCTYPE svg PUBLIC "-//W3C//DTD SVG 20010904//EN"
 "http://www.w3.org/TR/2001/REC-SVG-20010904/DTD/svg10.dtd">
<svg version="1.0" xmlns="http://www.w3.org/2000/svg"
 width="131.000000pt" height="58.000000pt" viewBox="0 0 131.000000 58.000000"
 preserveAspectRatio="xMidYMid meet">

<g transform="translate(-113.000000,-89.000000) "
fill="#000000" stroke="none">
<path d="M539 565 c-4 -5 -5 -21 -4 -35 2 -14 4 -31 4 -37 1 -15 31 -18 31 -3
0 6 -6 10 -12 10 -9 0 -8 4 2 10 9 6 10 10 3 10 -6 0 -13 12 -15 28 -2 15 -6
23 -9 17z"/>
<path d="M460 544 c0 -12 24 -49 44 -67 l21 -18 -25 7 c-14 4 -27 10 -30 14
-6 9 -50 23 -50 16 0 -2 17 -15 38 -27 20 -13 41 -29 46 -37 4 -8 22 -20 39
-27 29 -12 34 -22 41 -70 3 -18 10 -20 64 -20 34 0 62 -3 62 -7 0 -5 7 -8 15
-8 8 0 15 7 15 15 0 23 48 38 80 25 26 -11 70 -60 70 -78 0 -5 11 -21 25 -36
14 -15 25 -34 25 -42 0 -23 17 -16 24 11 7 29 14 30 42 7 50 -42 31 -100 -29
-88 -16 3 -39 6 -51 6 -16 0 -18 2 -7 9 11 7 11 10 -1 17 -8 5 -18 24 -21 42
-7 36 -56 126 -65 118 -3 -3 1 -12 8 -21 7 -9 10 -18 6 -22 -3 -3 -6 -1 -6 5
0 6 -9 10 -20 9 -11 -1 -20 -7 -20 -14 0 -19 -20 -16 -37 5 -13 15 -13 15 -4
-4 6 -12 18 -24 27 -28 9 -3 14 -13 11 -20 -3 -8 -1 -17 6 -20 8 -3 8 -5 -2
-5 -16 -1 -51 37 -51 56 0 7 -7 13 -15 13 -8 0 -15 -4 -15 -9 0 -17 -63 -22
-86 -6 -13 8 -36 15 -51 15 -16 0 -45 9 -66 20 -41 22 -62 26 -51 8 5 -7 3 -8
-5 -4 -16 10 -51 -21 -51 -44 0 -10 -7 -21 -16 -24 -23 -9 -24 -8 -24 14 0 17
-4 19 -27 14 -16 -4 -32 -10 -37 -15 -5 -5 5 -5 22 0 27 8 32 7 32 -8 0 -14
-10 -18 -46 -20 -29 -1 -43 2 -40 8 6 9 -14 17 -96 37 -32 7 -38 -9 -10 -26
14 -10 13 -10 -9 -6 -18 4 -26 1 -26 -9 0 -8 4 -12 9 -9 14 9 109 -7 102 -17
-3 -5 -25 -9 -50 -9 -35 0 -44 -3 -44 -17 0 -14 -4 -12 -18 8 -21 32 -37 20
-47 -35 -6 -29 -4 -36 9 -36 9 0 16 -3 16 -7 0 -5 216 -9 480 -11 423 -2 480
0 480 13 0 8 -4 15 -10 15 -24 0 -8 39 20 49 17 5 30 15 30 21 0 7 12 24 28
38 27 27 41 62 23 62 -5 0 -12 -8 -14 -17 -3 -10 -5 -4 -4 13 1 35 -29 75 -76
100 -15 8 -25 19 -22 24 3 5 -11 7 -32 5 -24 -2 -32 0 -22 6 19 12 -3 12 -33
-1 -36 -15 -61 -38 -53 -50 5 -8 10 -8 20 0 10 8 17 7 27 -5 7 -9 19 -22 26
-30 14 -15 16 -26 5 -23 -5 0 -16 -2 -26 -7 -15 -6 -16 -10 -5 -16 11 -7 11
-9 0 -9 -8 0 -16 9 -19 20 -3 11 -10 20 -17 20 -6 0 -6 4 3 9 11 7 11 10 0 17
-7 4 -14 3 -17 -4 -2 -8 -12 -6 -31 8 -16 10 -49 25 -74 31 -39 11 -48 10 -71
-4 -14 -9 -38 -17 -53 -17 -28 1 -83 40 -83 60 0 5 -4 10 -10 10 -5 0 -7 7 -3
16 4 10 -1 17 -16 21 -11 3 -18 9 -16 14 3 4 -6 16 -20 25 -14 9 -25 21 -25
28 0 6 -9 17 -20 24 -11 7 -20 10 -20 6z m500 -158 c0 -2 -7 -7 -16 -10 -8 -3
-12 -2 -9 4 6 10 25 14 25 6z m80 -122 c0 -2 -9 0 -20 6 -11 6 -20 13 -20 16
0 2 9 0 20 -6 11 -6 20 -13 20 -16z m-505 -45 l-7 -22 30 22 c17 11 36 21 44
21 8 0 9 -3 3 -8 -6 -4 -16 -19 -22 -34 -7 -16 -21 -28 -30 -29 -16 0 -15 -2
2 -9 18 -8 17 -9 -7 -9 -14 -1 -28 -4 -31 -8 -2 -5 -2 -2 0 5 1 8 3 31 3 53 0
21 5 39 11 39 6 0 8 -9 4 -21z m249 -80 c20 -12 36 -23 36 -26 0 -2 -33 -3
-74 -1 -79 3 -93 20 -32 37 17 5 32 10 33 10 1 1 18 -8 37 -20z"/>
<path d="M597 503 c-15 -37 -14 -53 2 -53 9 0 25 80 18 87 -3 2 -11 -13 -20
-34z"/>
<path d="M1123 377 c15 -14 27 -34 27 -44 0 -13 3 -14 12 -5 13 13 -11 45 -47
64 -14 7 -11 3 8 -15z"/>
</g>
</svg>
